<svg xmlns="http://www.w3.org/2000/svg" xmlns:xlink="http://www.w3.org/1999/xlink" width="375" height="812" viewBox="0 0 375 812"><defs><style>.a{fill:url(#a);}.b{fill:url(#e);}.c{clip-path:url(#g);}.d{clip-path:url(#i);}.ag,.e{opacity:0.5;}.e{fill:url(#j);}.f{fill:url(#k);}.g{opacity:0.236;fill:url(#l);}.h,.i{fill:#e2ebfc;}.h{opacity:0.806;}.i{opacity:0.426;}.j{fill:url(#m);}.k{fill:#98bbe9;}.l{fill:#8fafda;}.m{fill:url(#n);}.n{fill:#5ace87;}.o{fill:#42b16d;}.p{fill:url(#o);}.q{fill:#d2def8;}.r{fill:url(#p);}.s{fill:url(#q);}.t{fill:url(#r);}.u{fill:#9bbbe8;}.v{fill:url(#v);}.w{fill:#fff;}.x{fill:url(#z);}.y{fill:url(#ab);}.z{fill:url(#ac);}.aa{fill:none;stroke:#fff;stroke-linecap:round;stroke-linejoin:round;stroke-miterlimit:10;stroke-width:0.661px;}.ab{fill:#b06c57;}.ac{fill:url(#as);}.ad{fill:#111aa7;}.ae{fill:url(#au);}.af{clip-path:url(#aw);}.ag{fill:#efab45;}.ah{fill:url(#ax);}.ai{fill:#d2d9ff;}</style><linearGradient id="a" x1="0.5" y1="0.197" x2="-0.338" y2="2.945" gradientUnits="objectBoundingBox"><stop offset="0" stop-color="#f7faff"/><stop offset="1" stop-color="#6b9ad9"/></linearGradient><linearGradient id="c" x1="0.458" y1="0.152" x2="0.759" y2="0.707" gradientUnits="objectBoundingBox"><stop offset="0" stop-color="#f59ba9"/><stop offset="1" stop-color="#f25267"/></linearGradient><linearGradient id="e" x1="0.5" y1="-0.109" x2="0.5" y2="1" gradientUnits="objectBoundingBox"><stop offset="0" stop-color="#ffe579"/><stop offset="1" stop-color="#feb755"/></linearGradient><clipPath id="g"><rect class="a" width="375" height="812" transform="translate(0.974 0)"/></clipPath><clipPath id="i"><rect class="a" width="375" height="812"/></clipPath><linearGradient id="j" x1="0.5" y1="0.197" x2="-0.338" y2="2.945" gradientUnits="objectBoundingBox"><stop offset="0" stop-color="#ecf2ff"/><stop offset="1" stop-color="#6b9ad9"/></linearGradient><linearGradient id="k" x1="0.5" y1="0.197" x2="-0.338" y2="2.945" gradientUnits="objectBoundingBox"><stop offset="0" stop-color="#e7efff"/><stop offset="1" stop-color="#6b9ad9"/></linearGradient><linearGradient id="l" x1="0.5" y1="0.197" x2="-0.338" y2="2.945" gradientUnits="objectBoundingBox"><stop offset="0" stop-color="#d9e6ff"/><stop offset="1" stop-color="#1c467e"/></linearGradient><linearGradient id="m" x1="0.5" y1="-1.043" x2="0.5" y2="1" gradientUnits="objectBoundingBox"><stop offset="0" stop-color="#fff"/><stop offset="1" stop-color="#b3cdef"/></linearGradient><linearGradient id="n" x1="0.5" y1="0.321" x2="0.673" y2="1.16" gradientUnits="objectBoundingBox"><stop offset="0" stop-color="#84f0a8"/><stop offset="1" stop-color="#48b676"/></linearGradient><linearGradient id="o" x1="0.393" x2="0.5" y2="1" gradientUnits="objectBoundingBox"><stop offset="0" stop-color="#fff"/><stop offset="1" stop-color="#e5eeff"/></linearGradient><linearGradient id="p" x1="1.574" y1="-0.397" x2="1.188" y2="1.159" gradientUnits="objectBoundingBox"><stop offset="0" stop-color="#e5edff"/><stop offset="1" stop-color="#6b9ad9"/></linearGradient><linearGradient id="q" x1="1.494" y1="-0.866" x2="1.574" y2="2.197" xlink:href="#p"/><linearGradient id="r" x1="0.476" y1="0.959" x2="0.476" y2="0.068" gradientUnits="objectBoundingBox"><stop offset="0" stop-color="#fff"/><stop offset="1" stop-color="#d9e5ff"/></linearGradient><linearGradient id="v" x1="1.574" y1="-0.397" x2="1.283" y2="2.553" xlink:href="#p"/><linearGradient id="z" x1="0.5" y1="-1.423" x2="0.5" y2="1.702" gradientUnits="objectBoundingBox"><stop offset="0" stop-color="#95b7e5"/><stop offset="1" stop-color="#476db1"/></linearGradient><linearGradient id="ab" x1="0.833" y1="0.113" x2="0.599" y2="0.973" gradientUnits="objectBoundingBox"><stop offset="0" stop-color="#476db1"/><stop offset="1" stop-color="#283f6f"/></linearGradient><linearGradient id="ac" x1="0.833" y1="0.113" x2="-0.161" y2="4.488" xlink:href="#ab"/><linearGradient id="as" x1="1" y1="0.5" x2="0" y2="0.5" gradientUnits="objectBoundingBox"><stop offset="0" stop-color="#2865c6"/><stop offset="1" stop-color="#10378a"/></linearGradient><linearGradient id="au" x1="0.607" x2="0.521" y2="0.5" gradientUnits="objectBoundingBox"><stop offset="0" stop-color="#3485f7"/><stop offset="1" stop-color="#1a57cf"/></linearGradient><clipPath id="aw"><path class="b" d="M40.783,11.019c8.852,0,12.64-5.273,12.64-5.273S79.678,8.386,85.911,21.62c3.652,7.755,4.444,10.014,11.2,22.114,4.773,8.55-17.575,19.2-17.575,19.2S92.557,89.205,99.313,92.233c1.528,1.451,1.528,6.07.972,7.964-1.041,3.548-16.168,24.936-23.793,22.154s-33.062-13.069-33.062-13.069L4.829,73.306,0,34.3A157.082,157.082,0,0,1,9.477,11.019c8.345-16.672,22.4-8.12,22.4-8.12S31.93,11.019,40.783,11.019Z" transform="translate(0.043 0.432)"/></clipPath><linearGradient id="ax" x1="0.851" y1="1.093" x2="0.049" y2="-0.472" gradientUnits="objectBoundingBox"><stop offset="0" stop-color="#032258"/><stop offset="1" stop-color="#133e94"/></linearGradient></defs><g transform="translate(-0.974 0)"><rect class="a" width="375" height="812" transform="translate(0.974 0)"/><g class="c"><g transform="translate(0.974 -1)"><rect class="a" width="375" height="812"/><g class="d"><g transform="matrix(-0.966, 0.259, -0.259, -0.966, 569.314, 777.67)"><path class="e" d="M5.258,69.449s303.4,124.222,303.4,302.989S548.254,625.1,548.254,625.1V0H0Z" transform="translate(0)"/><path class="f" d="M0,51.2s239.176,121.95,239.176,300.717S437.579,625.1,437.579,625.1V0H0Z" transform="translate(110.675 0)"/><path class="g" d="M0,14.174s178.189,137.8,178.189,316.569S341.278,625.1,341.278,625.1V0H0Z" transform="translate(206.975 0)"/></g><g transform="translate(14 72)"><g transform="translate(26.406 358.009)"><ellipse class="h" cx="117.602" cy="5.882" rx="117.602" ry="5.882" transform="translate(72.402 0)"/><ellipse class="h" cx="82.698" cy="11.145" rx="82.698" ry="11.145" transform="translate(332.308 28.299)"/><ellipse class="i" cx="34.368" cy="7.068" rx="34.368" ry="7.068" transform="translate(0.594 1.61)"/><ellipse class="h" cx="50.478" cy="9.786" rx="50.478" ry="9.786" transform="translate(111.065 30.058)"/></g><g transform="translate(0 203.963)"><g transform="translate(119.741 16.551) rotate(16)"><path class="j" d="M-39.828.034c-7.655.765-5.017,18.074-7.118,21.274-2.1,3.177-8.008,4.141-7.182,11.066s6.523,6.693,7.2,12.446-12.135,5-11.041,14.082,10.973,11.834,11.622,17.3-4.243,7.616-2.795,19.723,11.419,14.587,26.31,15.645S1.3,108.547-.149,95.493s-17.258-12.678-19.21-19.841c-1.952-7.138,8.061-11.023,7.121-19.4s-16-7.991-16.77-14.681,11.021-10.34,10.238-17.29S-22.548,16.3-28.2,13.905C-33.843,11.558-32.173-.731-39.828.034Z" transform="translate(-0.249 0.158)"/><path class="k" d="M-.618,15.838A.47.47,0,0,0,0,15.379a.8.8,0,0,0-.522-.805C-8.068,12.309-12.17,7.721-13,.665A.736.736,0,0,0-13.638,0a.507.507,0,0,0-.49.621C-13.226,8.31-8.666,13.408-.618,15.838Z" transform="translate(-23.855 89.66)"/><path class="k" d="M-.425,10.7a.505.505,0,0,0,.4-.688.763.763,0,0,0-.732-.6c-5.067.41-9.387-2.573-13.069-9.032a.658.658,0,0,0-.82-.335A.578.578,0,0,0-14.8.876C-10.846,7.8-6.018,11.142-.425,10.7Z" transform="translate(-28.395 65.825)"/><path class="k" d="M-.291,5.27a.365.365,0,0,0,.275-.482.477.477,0,0,0-.5-.371c-2.571.37-4.749-1-6.608-4.177a.427.427,0,0,0-.557-.2.406.406,0,0,0-.108.569C-5.743,4.1-3.22,5.687-.291,5.27Z" transform="translate(-38.821 32.598)"/><path class="k" d="M-6.352,5.994a.428.428,0,0,1-.384-.452.4.4,0,0,1,.405-.414C-3.7,5.256-1.864,3.677-.767.287a.382.382,0,0,1,.5-.259A.457.457,0,0,1-.023.59C-1.227,4.316-3.355,6.143-6.352,5.994Z" transform="translate(-32.483 27.255)"/><path class="k" d="M-11.159,10.048a.662.662,0,0,1-.557-.693.564.564,0,0,1,.594-.583c4.71.451,8.018-2.28,10-8.367A.536.536,0,0,1-.38.049.709.709,0,0,1-.035.9C-2.181,7.483-5.915,10.561-11.159,10.048Z" transform="translate(-19.798 57.818)"/><path class="k" d="M-11.159,9.586a.7.7,0,0,1-.557-.721.535.535,0,0,1,.594-.557c4.71.671,8.018-1.913,10-7.925A.515.515,0,0,1-.38.06.741.741,0,0,1-.035.931C-2.181,7.432-5.915,10.344-11.159,9.586Z" transform="translate(-10.883 88.919)"/><path class="l" d="M-2.1,118.691a1.068,1.068,0,0,0,.864.942c.422.042,1.292-.255,1.237-.735a67.929,67.929,0,0,1-2.319-12.214c-.9-7.752,1.68-20.462-.111-29.105-1.791-8.623-11.552-24.942-15.056-37.743-2.851-10.357-.9-19.852-.59-26.132A55.929,55.929,0,0,0-19.283,0c-.165.014,1.216,7.62.783,13.73-.433,6.089-2.084,14.135-.662,23C-16.515,53.263-5.53,67.84-4.269,78.813s-1.2,17.629-.57,27.242Q-4.212,115.656-2.1,118.691Z" transform="translate(-20.052 10.975)"/></g><g transform="translate(0.009 21.064) rotate(-17)"><path class="m" d="M28.768,0c7.655,0,7.052,18.093,9.507,21.252s8.432,3.778,8.432,11.115-5.7,7.338-5.7,13.379S53.7,50.673,53.7,60.4s-9.558,12.588-9.558,18.36,5.166,8.2,5.166,21.081-9.757,14.783-24.648,14.783S0,109.91,0,97.03,15.9,84.94,17.039,77.721,7.724,66.57,7.724,58.211s15.062-8.36,15.062-15.19-12.138-9.93-12.138-16.9,2.853-8.214,8.183-11.038S21.113,0,28.768,0Z"/><path class="n" d="M.686,15.795a.573.573,0,0,1-.673-.512.68.68,0,0,1,.432-.8C7.777,12.591,11.365,8.022,11.365.671a.574.574,0,1,1,1.131,0C12.5,8.7,8.508,13.774.686,15.795Z" transform="translate(24.655 92.491)"/><path class="n" d="M.479,11.191A.556.556,0,0,1,.01,10.5.7.7,0,0,1,.7,9.887c5.177.359,9.283-2.753,12.419-9.474a.626.626,0,0,1,.8-.367.626.626,0,0,1,.233.848C10.783,8.11,6.193,11.588.479,11.191Z" transform="translate(25.649 67.527)"/><path class="n" d="M.328,5.916a.38.38,0,0,1-.322-.47.472.472,0,0,1,.467-.412C3.1,5.227,5.172,3.672,6.756.278A.425.425,0,0,1,7.3.032a.424.424,0,0,1,.161.574C5.721,4.335,3.321,6.136.328,5.916Z" transform="translate(31.707 32.812)"/><path class="n" d="M7.181,5.916C4.188,6.136,1.788,4.335.049.606A.424.424,0,0,1,.21.032.425.425,0,0,1,.753.278C2.337,3.672,4.409,5.227,7.036,5.035a.472.472,0,0,1,.467.412A.38.38,0,0,1,7.181,5.916Z" transform="translate(24.277 28.069)"/><path class="n" d="M12.634,10.4C7.393,10.751,3.173,7.537.073.892A.624.624,0,0,1,.3.045a.625.625,0,0,1,.8.368c2.869,6.151,6.608,9,11.315,8.681a.7.7,0,0,1,.685.613A.552.552,0,0,1,12.634,10.4Z" transform="translate(15.06 59.426)"/><path class="n" d="M12.634,10.4C7.393,10.751,3.173,7.537.073.892A.624.624,0,0,1,.3.045a.625.625,0,0,1,.8.368c2.869,6.151,6.608,9,11.315,8.681a.7.7,0,0,1,.685.613A.552.552,0,0,1,12.634,10.4Z" transform="translate(9.656 90.651)"/><path class="o" d="M4.537,122.038a.833.833,0,0,1-.764.888c-.422,0-1.337-.4-1.337-.888a68.89,68.89,0,0,0,.923-12.412C3.367,101.69-.7,88.475.105,79.709s8.692-25.433,10.7-38.7c1.638-10.791-1.4-20.483-2.435-26.907A58.9,58.9,0,0,1,7.994,0c.165,0-.329,7.882.8,14.106s3.708,14.437,3.322,23.654C11.4,54.917,2.092,69.828,2.092,81.041s3.247,18.23,3.735,28.142S4.537,122.038,4.537,122.038Z" transform="translate(21.277 11.067)"/></g><g transform="matrix(0.883, 0.469, -0.469, 0.883, 138.611, 50.964)"><path class="p" d="M-28.768,0c-7.655,0-7.052,15.437-9.507,18.133s-8.432,3.223-8.432,9.484,5.7,6.261,5.7,11.415S-53.7,43.236-53.7,51.537s9.558,10.74,9.558,15.665-5.166,7-5.166,17.987S-39.551,97.8-24.66,97.8,0,93.778,0,82.788-15.9,72.472-17.039,66.313-7.724,56.8-7.724,49.667s-15.062-7.133-15.062-12.961,12.138-8.472,12.138-14.417-2.853-7.008-8.183-9.418S-21.113,0-28.768,0Z"/><path class="q" d="M-.686,13.477a.566.566,0,0,0,.673-.437.572.572,0,0,0-.432-.681C-7.777,10.743-11.365,6.845-11.365.572A.569.569,0,0,0-11.93,0,.569.569,0,0,0-12.5.572C-12.5,7.42-8.508,11.752-.686,13.477Z" transform="translate(-24.655 78.916)"/><path class="q" d="M-.5,9.1A.569.569,0,0,0,0,8.464a.573.573,0,0,0-.636-.5C-5.7,8.572-9.525,6.066-12.2.331a.571.571,0,0,0-.758-.278.57.57,0,0,0-.274.759C-10.36,6.969-6.086,9.77-.5,9.1Z" transform="translate(-26.117 57.839)"/><path class="q" d="M-.342,4.82A.389.389,0,0,0,0,4.389a.386.386,0,0,0-.432-.336C-3,4.37-4.933,3.119-6.284.222A.388.388,0,0,0-6.8.037a.387.387,0,0,0-.189.514C-5.5,3.732-3.269,5.181-.342,4.82Z" transform="translate(-31.95 28.109)"/><path class="q" d="M-6.683,4.82C-3.756,5.181-1.52,3.732-.036.551A.387.387,0,0,0-.225.037.388.388,0,0,0-.741.222c-1.351,2.9-3.281,4.147-5.85,3.83a.386.386,0,0,0-.432.336A.389.389,0,0,0-6.683,4.82Z" transform="translate(-24.519 24.062)"/><path class="q" d="M-11.751,8.464C-6.628,9.069-2.7,6.479-.054.809A.568.568,0,0,0-.325.053a.569.569,0,0,0-.754.279c-2.448,5.248-5.929,7.542-10.53,7a.573.573,0,0,0-.633.5A.564.564,0,0,0-11.751,8.464Z" transform="translate(-15.491 50.906)"/><path class="q" d="M-11.751,8.464C-6.628,9.069-2.7,6.479-.054.809A.568.568,0,0,0-.325.053a.569.569,0,0,0-.754.279c-2.448,5.248-5.929,7.542-10.53,7a.573.573,0,0,0-.633.5A.564.564,0,0,0-11.751,8.464Z" transform="translate(-10.088 77.548)"/><path class="q" d="M-4.537,104.126a.761.761,0,0,0,.764.758c.422,0,1.337-.339,1.337-.758a50.412,50.412,0,0,1-.923-10.59C-3.367,86.764.7,75.489-.105,68.009s-8.692-21.7-10.7-33.016c-1.638-9.207,1.4-17.476,2.435-22.957A42.941,42.941,0,0,0-7.994,0c-.165,0,.329,6.725-.8,12.036s-3.708,12.318-3.322,20.182C-11.4,46.857-2.092,59.579-2.092,69.146S-5.34,84.7-5.827,93.157-4.537,104.126-4.537,104.126Z" transform="translate(-21.277 9.443)"/></g><g transform="translate(39.201 130.966)"><path class="r" d="M0,0H45.668L35.519,28.835H10.148Z" transform="translate(0.913 0.901)"/><path class="s" d="M2.9,0H43.681a2.9,2.9,0,0,1,2.9,2.9V6.113a2.9,2.9,0,0,1-2.9,2.9H2.9A2.9,2.9,0,0,1,0,6.113V2.9A2.9,2.9,0,0,1,2.9,0Z"/></g></g><g transform="translate(176.135)"><path class="t" d="M149.952,21.689a16.532,16.532,0,0,1,9.875,5.823,10.9,10.9,0,0,1,17.635,8.576,10.97,10.97,0,0,1-.162,1.88h.162a16.508,16.508,0,0,1,12.624,5.85,24.441,24.441,0,0,1,44.148,14.449q0,.377-.011.752h.011a16.54,16.54,0,1,1-9.252,30.254,16.55,16.55,0,0,1-31.3-2.8,13.855,13.855,0,0,1-8.716,3.366A23.693,23.693,0,0,1,148.957,84.5a28.02,28.02,0,0,1-47.137,0A23.693,23.693,0,0,1,65.809,89.84a13.855,13.855,0,0,1-8.716-3.366,16.55,16.55,0,0,1-31.3,2.8,16.542,16.542,0,1,1-9.252-30.254h.011q-.011-.375-.011-.752A24.441,24.441,0,0,1,60.692,43.818a16.508,16.508,0,0,1,12.624-5.85h.162A10.911,10.911,0,0,1,84.219,25.187a10.858,10.858,0,0,1,6.732,2.325,16.532,16.532,0,0,1,9.875-5.823,24.562,24.562,0,0,1,8.124-8.257,16.547,16.547,0,0,1,32.451-.259,24.56,24.56,0,0,1,8.551,8.517Z" transform="translate(0 205.628)"/><g transform="translate(38.35)"><path class="r" d="M11.279,18.8Q22.559,4.605,45.117,0V56.764H0Q0,32.987,11.279,18.8Z" transform="translate(0 131.948)"/><path class="r" d="M33.838,18.8Q45.117,32.987,45.117,56.764H0V0Q22.559,4.605,33.838,18.8Z" transform="translate(127.833 131.948)"/><path class="j" d="M79.491,58.216q6.954,31.476,8.418,129.958A11.274,11.274,0,0,1,76.8,199.612H11.277A11.274,11.274,0,0,1,0,188.342q0-.084,0-.167Q1.465,89.692,8.419,58.216,19.445,8.313,43.955,0,68.465,8.313,79.491,58.216Z" transform="translate(42.896)"/><path class="u" d="M0,9.869V6.113H13.41V9.869ZM0,3.758V0H22.554V3.758Z" transform="translate(48.239 162.9)"/><path class="v" d="M0,36.464Q10.829,6.3,29.4,0q18.568,6.3,29.4,36.464H0Z" transform="translate(57.454)"/><path class="v" d="M22.935,45.862A22.931,22.931,0,1,1,45.869,22.931,22.933,22.933,0,0,1,22.935,45.862Z" transform="translate(63.916 53.757)"/><path class="w" d="M18.8,37.6A18.8,18.8,0,1,0,0,18.8,18.8,18.8,0,0,0,18.8,37.6Z" transform="translate(68.051 57.89)"/><path class="r" d="M0,0H67.3L63.965,8.411a7.518,7.518,0,0,1-6.989,4.746H10.324A7.518,7.518,0,0,1,3.335,8.411Z" transform="translate(54.141 199.614)"/><path class="r" d="M8.648,0a5.2,5.2,0,0,1,5.189,4.876L17.3,60.9H0L3.459,4.876A5.2,5.2,0,0,1,8.648,0Z" transform="translate(77.828 131.572)"/></g></g><g transform="translate(110.084 177.663)"><g transform="translate(0.005)"><g transform="translate(0 73.058)"><path class="x" d="M0,103.854V0H13.754L2.715,103.861a1.433,1.433,0,0,1-1.426,1.281A1.289,1.289,0,0,1,0,103.854Z" transform="translate(11.277 8.051)"/><path class="x" d="M11.039,103.861,0,0H13.754V103.854a1.288,1.288,0,0,1-1.289,1.288A1.433,1.433,0,0,1,11.039,103.861Z" transform="translate(187.502 8.051)"/><path class="y" d="M0,0H211.04V8.583H0Z" transform="translate(0.532 0.326)"/></g><g transform="translate(54.688)"><path class="z" d="M0,0H23.64V14.162H0Z" transform="translate(42.122 61.797)"/><path class="y" d="M1.718,0H105.306a1.718,1.718,0,0,1,1.718,1.718V60.509a1.718,1.718,0,0,1-1.718,1.718H1.718A1.718,1.718,0,0,1,0,60.509V1.718A1.718,1.718,0,0,1,1.718,0Z"/><g transform="translate(4.296 3.757)"><path class="a" d="M0,0H98.428V53.644H0Z" transform="translate(0.002 0.534)"/><path class="r" d="M.537,0H6.949a.537.537,0,0,1,.537.537V11.072a.537.537,0,0,1-.537.537H.537A.537.537,0,0,1,0,11.072V.537A.537.537,0,0,1,.537,0Z" transform="translate(61.218 40.256)"/><path class="j" d="M.537,0H6.949a.537.537,0,0,1,.537.537v14.4a.537.537,0,0,1-.537.537H.537A.537.537,0,0,1,0,14.941V.537A.537.537,0,0,1,.537,0Z" transform="translate(79.476 36.499)"/><path class="r" d="M.537,0H6.949a.537.537,0,0,1,.537.537V9.574a.537.537,0,0,1-.537.537H.537A.537.537,0,0,1,0,9.574V.537A.537.537,0,0,1,.537,0Z" transform="translate(88.605 41.866)"/><path class="j" d="M.537,0H6.949a.537.537,0,0,1,.537.537V20.746a.537.537,0,0,1-.537.537H.537A.537.537,0,0,1,0,20.746V.537A.537.537,0,0,1,.537,0Z" transform="translate(70.347 30.594)"/><g transform="translate(61.218 3.22)"><path class="j" d="M.43,0H34.368a.429.429,0,0,1,.43.429V23.724a.429.429,0,0,1-.43.429H.43A.429.429,0,0,1,0,23.724V.429A.429.429,0,0,1,.43,0Z" transform="translate(0.016)"/><path class="aa" d="M0,16,4.331,8.588a.859.859,0,0,1,1.364-.16l3.687,3.863a.859.859,0,0,0,1.3-.065l7.056-9.051a.859.859,0,0,1,1.4.057L22.5,8.36a.859.859,0,0,0,1.418.027L29.9,0Z" transform="translate(2.382 3.17)"/><path class="aa" d="M0,9.135l9.009-7.2a.86.86,0,0,1,1.016-.042l3.9,2.623A.859.859,0,0,0,15.02,4.4L18.763.588A.859.859,0,0,1,19.951.551l4.266,3.842a.859.859,0,0,0,1.153,0L30.208,0Z" transform="translate(2.382 10.039)"/></g><g transform="translate(11.814 3.22)"><path class="j" d="M24.082,3.475a2.656,2.656,0,0,1,1.586.933,1.75,1.75,0,0,1,2.806,1.675H28.5a2.654,2.654,0,0,1,2.027.937,3.927,3.927,0,0,1,7.09,2.315q0,.06,0,.12h0A2.65,2.65,0,1,1,36.132,14.3a2.66,2.66,0,0,1-5.026-.448,2.228,2.228,0,0,1-1.4.539,3.811,3.811,0,0,1-5.783-.856,4.506,4.506,0,0,1-7.57,0,3.811,3.811,0,0,1-5.783.856,2.228,2.228,0,0,1-1.4-.539,2.66,2.66,0,0,1-5.026.448A2.653,2.653,0,1,1,2.657,9.456h0q0-.06,0-.12A3.927,3.927,0,0,1,9.747,7.02a2.654,2.654,0,0,1,2.027-.937H11.8a1.752,1.752,0,0,1,2.806-1.675,2.656,2.656,0,0,1,1.586-.933,3.94,3.94,0,0,1,1.3-1.323,2.659,2.659,0,0,1,5.212-.042,3.94,3.94,0,0,1,1.373,1.364Z" transform="translate(0 32.944)"/><g transform="translate(6.159)"><path class="r" d="M1.811,3.011A8.929,8.929,0,0,1,7.246,0V9.094H0A9.485,9.485,0,0,1,1.811,3.011Z" transform="translate(0 21.14)"/><path class="r" d="M5.434,3.011A9.485,9.485,0,0,1,7.246,9.094H0V0A8.929,8.929,0,0,1,5.434,3.011Z" transform="translate(20.53 21.14)"/><path class="j" d="M12.766,9.327q1.117,5.043,1.352,20.823h0a1.8,1.8,0,0,1-1.777,1.83H1.8a1.8,1.8,0,0,1-1.8-1.8q0-.013,0-.027Q.235,14.37,1.352,9.327,3.123,1.332,7.059,0,11,1.332,12.766,9.327Z" transform="translate(6.889)"/><path class="v" d="M0,5.842Q1.739,1.009,4.721,0,7.7,1.009,9.442,5.842H0Z" transform="translate(9.227)"/><path class="v" d="M3.683,7.348A3.674,3.674,0,1,1,7.367,3.674,3.679,3.679,0,0,1,3.683,7.348Z" transform="translate(10.265 8.612)"/><path class="w" d="M3.022,6.025A3.013,3.013,0,1,0,0,3.013,3.017,3.017,0,0,0,3.022,6.025Z" transform="translate(10.927 9.274)"/><path class="r" d="M0,0H10.808l-.536,1.35a1.2,1.2,0,0,1-1.118.758h-7.5A1.2,1.2,0,0,1,.536,1.35Z" transform="translate(8.695 31.98)"/><path class="r" d="M1.389,0a.835.835,0,0,1,.833.783l.555,8.974H0L.555.783A.835.835,0,0,1,1.389,0Z" transform="translate(12.499 21.079)"/></g></g></g></g></g></g><g transform="translate(104.714 133.113)"><g transform="translate(42.96 144.921)"><path class="ab" d="M3.3.587c.656-.441,10.951-2.016,9.852,2.959s-5.27,7.184-3.72,9.9q1.549,2.719-.666,3.191L2.662,13.449,0,9.081Q2.648,1.028,3.3.587Z" transform="translate(68.031 77.884)"/><path class="ac" d="M3.423.005C4.9-.155,5.5,3.528,7.862,4.3s4.769-1.621,5.28-1.135c1.493,1.419,3.924,2.663,6.423,4.574,6.15,4.7,6.708,5.271,4.516,8.578Q23.687,17.525.023,9.84A15.65,15.65,0,0,1,.53,4.772C1.17,2.548,1.945.166,3.423.005Z" transform="translate(64.401 86.052)"/><path class="ab" d="M11.486,1.341q.431.662-.612,8.141L6.869,13.292,0,13.844q.353-.859,1.005-2.784A52.864,52.864,0,0,0,2.828,2.952C3.761-2.057,11.055.679,11.486,1.341Z" transform="translate(20.789 73.215)"/><path class="ac" d="M7.535,0c2.54,0,5,2.628,5.638,4.851a15.65,15.65,0,0,1,.507,5.068q-9.446,2.521-11.3,1.758c-4.975-2.049-.725-8.73,0-9.419A8.231,8.231,0,0,1,7.535,0Z" transform="translate(20.042 79.531)"/><path class="ad" d="M11.87,10.87S46.758-5.435,53.035,2.718,64.687,37.668,33.282,77.311c0,0-3.4,2.4-6.033,2.024s-4.394-4.808-4.394-4.808L31.532,39.12,7.022,35.8,0,20.479Z" transform="translate(0.041 0.43)"/><path class="ae" d="M17.475,1.4S54.367-2.748,60.643,5.4s3.17,27.169-19.687,67.35c0,0-6.539,1.78-9.176,1.4s-4.394-4.808-4.394-4.808l9.751-39.7L0,34.95,5.6,11.007Z" transform="translate(42.766 9.903)"/></g><g transform="translate(5.907 64.409)"><path class="ab" d="M29.635,4.686S44.561,11.509,47.8,8.1s2.853-5.045,2.853-5.045S77.31,6.763,83.608,20c5.049,10.609,13.956,38.123,19.964,42.126,1.617-2.124,17.18-9.475,17.18-9.475s-2.406-1.187-2.406-3.154,1-1.332,1.712-2.058,1.04-1.839,2.049-1.815a11.761,11.761,0,0,1,2.9.5c.505.145,1.652-.686,2.153-.5,2.773,1.015,5.374,2.974,5.374,3.68a3.819,3.819,0,0,1-.931,3.347,13.558,13.558,0,0,1-2.9,1.763s-21.92,26.373-28.537,26.373-16.381-13.449-19-16.263c-2.8,9.085-38.316,41.861-38.316,41.861L3.846,70.406,0,30.971,31.179,0Z" transform="translate(1.078 3.332)"/><path class="b" d="M40.783,11.019c8.852,0,12.64-5.273,12.64-5.273S79.678,8.386,85.911,21.62c3.652,7.755,4.444,10.014,11.2,22.114,4.773,8.55-17.575,19.2-17.575,19.2S92.557,89.205,99.313,92.233c1.528,1.451,1.528,6.07.972,7.964-1.041,3.548-16.168,24.936-23.793,22.154s-33.062-13.069-33.062-13.069L4.829,73.306,0,34.3A157.082,157.082,0,0,1,9.477,11.019c8.345-16.672,22.4-8.12,22.4-8.12S31.93,11.019,40.783,11.019Z" transform="translate(0.043 0.432)"/><g class="af"><path class="ag" d="M8.559,10.941S2.693,3.7.085,0C-1.06,3.246,9.569,37.883,22.261,40.251s7.2-1.926,7.2-1.926Z" transform="translate(71.575 52.711)"/></g></g><g transform="translate(22.017)"><path class="ab" d="M11.224,40.556S8.734,48.6,7.218,51.207,8.4,60.362,15,60.362s15.542-5.156,15.542-5.156-3.35-5.285-3.35-9.968a17.6,17.6,0,0,1,1.91-8.022s3.62,2.324,5.941,0S47.2,7.734,20.854,1.086C14.476-3.526,4.709,7.734,4.709,12.741v8.9S0,19.61,0,24.834,6.088,31.98,6.088,31.98Z" transform="translate(7.342 19.725)"/><path class="ah" d="M30.407,3.182c7.662-7.7,14.985-.071,16.361,8.534,1.4,8.782-7.574,17.8-7.574,17.8V39.94q-2.733-4.551-6.076-3.445c-2.375.786-2.033,4.126-.8,7.041s2.814,2.737,2.565,3.341q-2.263,5.477-16.577,11.78Q8.086,56.455,2.7,42.979T2.7,22.1Q.311,15.189,8.093,8.915C15.875,2.64,22.746,10.882,30.407,3.182Z" transform="translate(0.514 0.504)"/></g><g transform="translate(0 100.371)"><path class="ai" d="M0,0H6.444V26.3H0Z" transform="translate(82.698 98.761)"/><ellipse class="y" cx="4.833" cy="4.831" rx="4.833" ry="4.831" transform="translate(46.182 154.046)"/><ellipse class="y" cx="4.833" cy="4.831" rx="4.833" ry="4.831" transform="translate(113.843 154.046)"/><ellipse class="y" cx="4.833" cy="4.831" rx="4.833" ry="4.831" transform="translate(81.087 159.413)"/><path class="x" d="M31.619,6.345l-.372-4A2.147,2.147,0,0,1,33.43,0l9.231.191q.06,0,.12.006A2.147,2.147,0,0,1,44.758,2.5l-.265,3.436L73.883,26.1q.12.082.232.174a3.281,3.281,0,0,1,.443,4.621,4.327,4.327,0,0,1-5.425,1.034L43.577,17.845l-1.4,18.173a3.975,3.975,0,0,1-3.862,3.668A3.836,3.836,0,0,1,34.4,36.207L32.643,17.343,6.176,31.93A4.327,4.327,0,0,1,.751,30.9a3.281,3.281,0,0,1,.443-4.621q.112-.092.232-.174L31.4,5.538Z" transform="translate(47.793 124.574)"/><path class="y" d="M9.789.764C6.538-1.051,1.569.648,0,2.925c.505,3.22.825,4.611.838,4.685,5.1,27.512,24.885,54,40.281,70.582C54.283,92.369,63.436,100.81,63.436,100.81s8.884,1.383,16.354-1.894c3.246-1.424,8.337-1,8.192-5.467-.3-9.2-8.474-13.844-11.7-27.166-3.027-12.5.378-37.959-8.77-43.2s-20.6,3.856-38.064-3.722C17.1,14,13.04,2.578,9.789.764Z" transform="translate(0.536 0.197)"/><path class="x" d="M0,0S5.962,47.387,10.353,62.359C14.792,77.5,20.447,83.87,26.552,89.941s28.934,16.648,47.172,17.584c16.142.829,38.685-3.887,47.023-9.07s12.652-16.3,3.224-19.06S84.152,88.01,81.289,86.768c-15.93-6.908-11.074-54.832-18.753-59.914-7.3-4.831-22.865,1.372-41.612-6.9C12.682,16.32,0,0,0,0Z" transform="translate(0.468 2.82)"/></g></g></g></g></g></g></g></svg>