<svg xmlns="http://www.w3.org/2000/svg" xmlns:xlink="http://www.w3.org/1999/xlink" width="375" height="812" viewBox="0 0 375 812"><defs><style>.a{fill:url(#a);}.b{fill:url(#c);}.c{fill:url(#e);}.d{clip-path:url(#g);}.e{clip-path:url(#i);}.aj,.ap,.aq,.f{opacity:0.5;}.f{fill:url(#j);}.g{fill:url(#k);}.h{opacity:0.236;fill:url(#l);}.i,.j,.k,.l{fill:#e2ebfc;}.i{opacity:0.222;}.j{opacity:0.806;}.k{opacity:0.454;}.l{opacity:0.14;}.m{fill:url(#m);}.n{fill:url(#n);}.o{fill:url(#o);}.p{fill:url(#q);}.q{fill:url(#r);}.ad,.r{fill:none;stroke-linecap:round;stroke-linejoin:round;}.r{stroke:#8aafe1;stroke-width:2px;stroke-dasharray:10 10;}.ad,.bd,.be,.r{stroke-miterlimit:10;}.s{fill:url(#x);}.t{fill:url(#aa);}.u{fill:url(#ab);}.v{fill:#feb957;}.w{fill:url(#ac);}.x{fill:url(#ad);}.y{fill:url(#ae);}.z{fill:url(#af);}.aa{fill:url(#ag);}.ab{fill:url(#ah);}.ac{fill:url(#ai);}.ad{stroke:#5f90cc;stroke-dasharray:5 10;}.ae{fill:url(#aj);}.af{fill:url(#ak);}.ag{fill:#f2a384;}.ah{fill:url(#am);}.ai{clip-path:url(#ao);}.aj,.al{fill:#51ae99;}.ak{clip-path:url(#ar);}.am{clip-path:url(#at);}.an{fill:#ff8d9d;}.ao{fill:url(#au);}.ap{fill:#eea642;}.aq{fill:#eead47;}.ar{fill:url(#az);}.as{fill:url(#bb);}.at{fill:#f4b952;opacity:0.7;}.au{fill:url(#bd);}.av{fill:#98bbe9;}.aw{fill:#8fafda;}.ax{fill:#5ace87;}.ay{fill:#42b16d;}.az{fill:url(#bf);}.ba{fill:#d2def8;}.bb{fill:url(#bg);}.bc{fill:url(#bh);}.bd,.be{fill:#f2f5ff;}.be{stroke:#b7c8ff;stroke-width:3px;}.bf{fill:url(#bj);}.bg,.bh{stroke:none;}.bh{fill:#b7c8ff;}</style><linearGradient id="a" x1="0.5" y1="0.197" x2="-0.338" y2="2.945" gradientUnits="objectBoundingBox"><stop offset="0" stop-color="#f7faff"/><stop offset="1" stop-color="#6b9ad9"/></linearGradient><linearGradient id="c" x1="0.5" y1="0.321" x2="0.673" y2="1.16" gradientUnits="objectBoundingBox"><stop offset="0" stop-color="#84f0a8"/><stop offset="1" stop-color="#48b676"/></linearGradient><linearGradient id="e" x1="1.384" y1="-0.34" x2="0.676" y2="1.761" gradientUnits="objectBoundingBox"><stop offset="0" stop-color="#f59ba9"/><stop offset="1" stop-color="#f25267"/></linearGradient><clipPath id="g"><rect class="a" width="375" height="812" transform="translate(0.974 0)"/></clipPath><clipPath id="i"><rect class="a" width="375" height="812"/></clipPath><linearGradient id="j" x1="0.5" y1="0.197" x2="-0.338" y2="2.945" gradientUnits="objectBoundingBox"><stop offset="0" stop-color="#ecf2ff"/><stop offset="1" stop-color="#6b9ad9"/></linearGradient><linearGradient id="k" x1="0.5" y1="0.197" x2="-0.338" y2="2.945" gradientUnits="objectBoundingBox"><stop offset="0" stop-color="#e7efff"/><stop offset="1" stop-color="#6b9ad9"/></linearGradient><linearGradient id="l" x1="0.5" y1="0.197" x2="-0.338" y2="2.945" gradientUnits="objectBoundingBox"><stop offset="0" stop-color="#d9e6ff"/><stop offset="1" stop-color="#1c467e"/></linearGradient><linearGradient id="m" x1="0.5" y1="0.141" x2="0.5" y2="1" gradientUnits="objectBoundingBox"><stop offset="0" stop-color="#e9f0fb"/><stop offset="1" stop-color="#fff" stop-opacity="0"/></linearGradient><linearGradient id="n" x1="0.5" x2="0.5" y2="0.5" gradientUnits="objectBoundingBox"><stop offset="0" stop-color="#e9f0fb"/><stop offset="1" stop-color="#d9e5ff"/></linearGradient><linearGradient id="o" x1="0.833" y1="0.113" x2="0.599" y2="0.973" gradientUnits="objectBoundingBox"><stop offset="0" stop-color="#476db1"/><stop offset="1" stop-color="#283f6f"/></linearGradient><linearGradient id="q" x1="0.794" y1="-0.518" x2="0.5" y2="1.89" xlink:href="#a"/><linearGradient id="r" x1="0.932" y1="-16.979" x2="0.403" y2="11.546" xlink:href="#a"/><linearGradient id="x" x1="0.932" y1="-16.979" x2="-0.337" y2="5.489" xlink:href="#a"/><linearGradient id="aa" x1="0.833" y1="0.113" x2="1.11" y2="9.535" xlink:href="#o"/><linearGradient id="ab" x1="0.5" y1="-0.109" x2="0.5" y2="1" gradientUnits="objectBoundingBox"><stop offset="0" stop-color="#ffe579"/><stop offset="1" stop-color="#feb755"/></linearGradient><linearGradient id="ac" x1="0.607" y1="1.276" x2="0.643" y2="0.901" gradientUnits="objectBoundingBox"><stop offset="0" stop-color="#46c36f" stop-opacity="0"/><stop offset="1" stop-color="#399d62"/></linearGradient><linearGradient id="ad" x1="-0.088" y1="1.097" x2="0.173" y2="0.154" gradientUnits="objectBoundingBox"><stop offset="0" stop-color="#fad0ba"/><stop offset="1" stop-color="#f2a384"/></linearGradient><linearGradient id="ae" x1="1" y1="0.5" x2="0" y2="0.5" gradientUnits="objectBoundingBox"><stop offset="0" stop-color="#2865c6"/><stop offset="1" stop-color="#10378a"/></linearGradient><linearGradient id="af" x1="0.5" y1="0.278" x2="0.552" y2="1.036" gradientUnits="objectBoundingBox"><stop offset="0" stop-color="#1542ab"/><stop offset="1" stop-color="#2b68ee"/></linearGradient><linearGradient id="ag" x1="1.088" y1="1.097" x2="0.827" y2="0.154" xlink:href="#ad"/><linearGradient id="ah" x1="0" x2="1" xlink:href="#ae"/><linearGradient id="ai" x1="0.393" x2="0.479" y2="0.5" gradientUnits="objectBoundingBox"><stop offset="0" stop-color="#3485f7"/><stop offset="1" stop-color="#1a57cf"/></linearGradient><linearGradient id="aj" x1="0.851" y1="1.093" x2="0.049" y2="-0.472" gradientUnits="objectBoundingBox"><stop offset="0" stop-color="#032258"/><stop offset="1" stop-color="#133e94"/></linearGradient><linearGradient id="ak" y1="0.321" x2="0.327" y2="1.16" xlink:href="#c"/><linearGradient id="am" x1="0.607" x2="0.5" y2="1" gradientUnits="objectBoundingBox"><stop offset="0" stop-color="#fff"/><stop offset="1" stop-color="#e5eeff"/></linearGradient><clipPath id="ao"><path class="b" d="M4.563,10.53S-2.994,39.234,1.964,56-1.161,92.245.735,101.5c23.49,5.586,20.742,14.332,20.742,14.332s4.472-5.723,4.008-25.134-1.105-20.491-1.823-29.327a204.4,204.4,0,0,1,0-22L16.948,5.795s-3.883-2.227-5.885-3.206S5.092,0,5.092,0Z" transform="translate(0.253 0.11)"/></clipPath><clipPath id="ar"><path class="b" d="M54.362,11.912s-2.825,9.776-4.112,13.76a22.874,22.874,0,0,0-.955,9.884c.864,7.766,4.929,11.3,2.846,29.872C51.326,72.69,45.706,82.1,44.824,90.2c-1.375,12.615.847,16.784,0,18.87-1.159,2.856-13.529.231-19.719,6.71-1.994-3.854,5.58-17.445,5.58-19.521s.258-17.666,6.619-29.1S42.165,33.7,42.165,33.7,26.179,30.622,18.78,25.672,0,4.311,0,4.311,1.7,0,3.895,0,20.974,13.529,32.481,15.17c4.824.688,8.7-2.167,12.343-2.99,5.8-1.308,12.669-2.229,13.372-2.47a6.349,6.349,0,0,1-.42,1.07C56.619,10.5,54.362,11.912,54.362,11.912Z" transform="translate(0.099 0.286)"/></clipPath><clipPath id="at"><path class="c" d="M-10.2.148l-65.063,28.04a1.864,1.864,0,0,0-.967,2.43l7.662,18.327a1.815,1.815,0,0,0,2.393.982l65.063-28.04a1.864,1.864,0,0,0,.967-2.43L-7.808,1.13A1.815,1.815,0,0,0-10.2.148Z" transform="translate(-0.162 0.321)"/></clipPath><linearGradient id="au" y1="0.278" x2="0.448" y2="1.036" xlink:href="#af"/><linearGradient id="az" x1="0.561" y1="0.797" x2="0.637" y2="0.5" gradientUnits="objectBoundingBox"><stop offset="0" stop-color="#f5b79c"/><stop offset="1" stop-color="#ec906c"/></linearGradient><linearGradient id="bb" x1="-0.216" y1="1.156" x2="0.862" y2="0.293" xlink:href="#ad"/><linearGradient id="bd" x1="0.5" y1="-1.043" x2="0.5" y2="1" gradientUnits="objectBoundingBox"><stop offset="0" stop-color="#fff"/><stop offset="1" stop-color="#b3cdef"/></linearGradient><linearGradient id="bf" x1="0.393" xlink:href="#am"/><linearGradient id="bg" x1="1.574" y1="-0.397" x2="1.188" y2="1.159" gradientUnits="objectBoundingBox"><stop offset="0" stop-color="#e5edff"/><stop offset="1" stop-color="#6b9ad9"/></linearGradient><linearGradient id="bh" x1="1.494" y1="-0.866" x2="1.574" y2="2.197" xlink:href="#bg"/><linearGradient id="bj" x1="0.458" y1="0.152" x2="0.759" y2="0.707" xlink:href="#e"/></defs><g transform="translate(-0.974 0)"><rect class="a" width="375" height="812" transform="translate(0.974 0)"/><g class="d"><g transform="translate(0.974 -1)"><rect class="a" width="375" height="812"/><g class="e"><g transform="matrix(-0.966, 0.259, -0.259, -0.966, 569.314, 777.67)"><path class="f" d="M5.258,69.449s303.4,124.222,303.4,302.989S548.254,625.1,548.254,625.1V0H0Z" transform="translate(0)"/><path class="g" d="M0,51.2s239.176,121.95,239.176,300.717S437.579,625.1,437.579,625.1V0H0Z" transform="translate(110.675 0)"/><path class="h" d="M0,14.174s178.189,137.8,178.189,316.569S341.278,625.1,341.278,625.1V0H0Z" transform="translate(206.975 0)"/></g><g transform="translate(-88.974 137)"><g transform="translate(133 271)"><ellipse class="i" cx="126.637" cy="14.335" rx="126.637" ry="14.335" transform="translate(44.429 17.574)"/><ellipse class="j" cx="70.175" cy="8.278" rx="70.175" ry="8.278" transform="translate(193.651 21.612)"/><ellipse class="i" cx="25.811" cy="5.249" rx="25.811" ry="5.249" transform="translate(0 0)"/><ellipse class="k" cx="78.241" cy="11.306" rx="78.241" ry="11.306" transform="translate(169.453 34.989)"/><ellipse class="l" cx="37.91" cy="7.268" rx="37.91" ry="7.268" transform="translate(36.363 47.417)"/></g><g transform="translate(0 101)"><path class="m" d="M.353,37.948S68.462-7.345,178.9,1.422,282.327,77.641,578.692,50.611v89.4H0Z" transform="translate(0 12.645)"/><path class="n" d="M256.182,50.611C120.944,62.945,48.879,55.605,0,43.145,58.236,28.3,83.561,6.188,143.605,1.422Q254.047-7.345,322.156,37.948Z" transform="translate(322.509 0)"/></g><g transform="translate(190)"><path class="o" d="M12.113,0H159.887A12.053,12.053,0,0,1,172,11.992V285.008A12.053,12.053,0,0,1,159.887,297H12.113A12.053,12.053,0,0,1,0,285.008V11.992A12.053,12.053,0,0,1,12.113,0Z"/><g transform="translate(4.038 19.987)"><path class="a" d="M.808,0h162.31a.8.8,0,0,1,.808.8V260.225a.8.8,0,0,1-.808.8H.808a.8.8,0,0,1-.808-.8V.8A.8.8,0,0,1,.808,0Z"/><ellipse class="p" cx="13.122" cy="12.991" rx="13.122" ry="12.991" transform="translate(19.38 21.985)"/><path class="q" d="M1.615,0H28.667a1.607,1.607,0,0,1,1.615,1.6V5.2a1.607,1.607,0,0,1-1.615,1.6H1.615A1.607,1.607,0,0,1,0,5.2V1.6A1.607,1.607,0,0,1,1.615,0Z" transform="translate(48.451 27.182)"/><path class="q" d="M1.615,0H40.779a1.607,1.607,0,0,1,1.615,1.6V5.2a1.607,1.607,0,0,1-1.615,1.6H1.615A1.607,1.607,0,0,1,0,5.2V1.6A1.607,1.607,0,0,1,1.615,0Z" transform="translate(48.451 36.775)"/><path class="r" d="M1.615,0H129.606a1.607,1.607,0,0,1,1.615,1.6V25.183a1.607,1.607,0,0,1-1.615,1.6H1.615A1.607,1.607,0,0,1,0,25.183V1.6A1.607,1.607,0,0,1,1.615,0Z" transform="translate(16.554 57.561)"/><path class="r" d="M1.615,0H52.892a1.607,1.607,0,0,1,1.615,1.6V13.191a1.607,1.607,0,0,1-1.615,1.6H1.615A1.607,1.607,0,0,1,0,13.191V1.6A1.607,1.607,0,0,1,1.615,0Z" transform="translate(54.911 193.07)"/><path class="q" d="M1.615,0H125.568a1.607,1.607,0,0,1,1.615,1.6v.8A1.607,1.607,0,0,1,125.568,4H1.615A1.607,1.607,0,0,1,0,2.4V1.6A1.607,1.607,0,0,1,1.615,0Z" transform="translate(18.573 224.249)"/><path class="q" d="M1.615,0H125.568a1.607,1.607,0,0,1,1.615,1.6v.8A1.607,1.607,0,0,1,125.568,4H1.615A1.607,1.607,0,0,1,0,2.4V1.6A1.607,1.607,0,0,1,1.615,0Z" transform="translate(18.573 235.042)"/><path class="q" d="M1.615,0H85.192a1.607,1.607,0,0,1,1.615,1.6v.8A1.607,1.607,0,0,1,85.192,4H1.615A1.607,1.607,0,0,1,0,2.4V1.6A1.607,1.607,0,0,1,1.615,0Z" transform="translate(18.573 245.834)"/><g transform="translate(16.554 96.735)"><path class="p" d="M1.615,0H129.606a1.607,1.607,0,0,1,1.615,1.6V85.143a1.607,1.607,0,0,1-1.615,1.6H1.615A1.607,1.607,0,0,1,0,85.143V1.6A1.607,1.607,0,0,1,1.615,0Z"/><path class="s" d="M51.527,5.258,77.409,30.883H0L25.882,5.258A18.263,18.263,0,0,1,51.527,5.258Z" transform="translate(0 55.962)"/><ellipse class="s" cx="9.892" cy="9.793" rx="9.892" ry="9.793" transform="translate(105.38 23.984)"/><path class="s" d="M61.953,6.322,93.073,37.131H0L31.119,6.322A21.958,21.958,0,0,1,61.953,6.322Z" transform="translate(38.357 49.714)"/></g></g><path class="t" d="M0,0H99.324V2.475a8.035,8.035,0,0,1-8.075,7.995H8.075A8.035,8.035,0,0,1,0,2.475Z" transform="translate(36.338 19.187)"/></g><g transform="translate(216 66)"><path class="u" d="M6.922.036,132.45,26.8a1.624,1.624,0,0,1,1.247,1.926l-4.966,23.431a1.619,1.619,0,0,1-1.921,1.251L1.283,26.644A1.624,1.624,0,0,1,.036,24.718L5,1.287A1.619,1.619,0,0,1,6.922.036Z" transform="translate(0.133 0.28)"/><path class="v" d="M116.293,50.3,98.24,18.646l.935.2L117.229,50.5Zm-15.929-3.4L83.471,15.5l.919.2,16.891,31.412Zm11.969-25.259.935.2,12.892,22.608-.222,1.05ZM85.761,43.8,68.87,12.385l.918.2L86.68,43.992ZM71.34,40.722,54.448,9.311l.919.2L72.258,40.918ZM56.882,37.64,39.991,6.228l.918.2L57.8,37.836ZM41.459,34.352,24.567,2.94l.919.2L42.377,34.548Zm-13.794-2.94L10.774,0l.919.2L28.584,31.607ZM12.427,28.163,0,5.054.23,3.969l13.117,24.39Z" transform="translate(3.981 1.957)"/></g><g transform="translate(346 87)"><path class="w" d="M.762,25.832C6.55,34.508,57,35.758,57,35.758l12.709.275a11.892,11.892,0,0,0,1.143-5.343c.06-3.463-.8-14.522-.8-14.522L33.14,0S-5.026,17.157.762,25.832Z" transform="translate(30.719 123.483)"/><g transform="translate(38.124 107.772)"><path class="x" d="M10,0l1.077,5.368A6.324,6.324,0,0,1,6.221,7.511,11.749,11.749,0,0,1,1.079,6.43L0,.563Z" transform="translate(11.27 88.974)"/><path class="y" d="M22.289,0c.817,0,.817,2.215.853,3.9a12.662,12.662,0,0,1-.416,2.805,1.288,1.288,0,0,1-1.263.91C8.349,8,.448,7.987.424,7.586-.624,4.845-.053,4.549,5.894,2.4,8.311,1.524,10.53,1.107,12.033.39c.514-.245,1.592,1.739,5.147,1.739S21.472,0,22.289,0Z" transform="translate(0.109 93.705)"/><path class="z" d="M14.1,0,36.444,4.443Q38.907,18.4,38.907,19.887c0,.994-21.521,28.467-22.306,34.479s4.109,35.377,2.676,36.715c-1.277,1.193-7.711,2.177-10.369.984C3.787,76.3,0,62.385,0,53.8S3.553,20.339,14.1,0Z" transform="translate(2.453 0.183)"/><g transform="translate(59.352 0.089)"><path class="aa" d="M-1.077,0l-10,.563L-10,6.43A11.749,11.749,0,0,0-4.854,7.511,6.324,6.324,0,0,0,0,5.368Z" transform="translate(-6.451 92.265)"/><path class="ab" d="M-.853,0c-.817,0-1.555,2.129-5.109,2.129S-10.6.144-11.109.39c-1.5.718-3.722,1.135-6.139,2.009-5.947,2.15-6.518,2.446-5.47,5.187.024.4,7.926.412,21.04.031a1.288,1.288,0,0,0,1.263-.91A12.662,12.662,0,0,0,0,3.9C-.036,2.215-.036,0-.853,0Z" transform="translate(-5.573 96.996)"/><path class="ac" d="M-42.812,0s4.791,11.335,12.217,16.286c4.211,2.807-.848,16.094,4.437,39.525s7.888,36.27,8.977,38.575,10.152,2.5,10.925-.685-2.9-17.739-3.413-39.287C-3.648,32.329.436,15.53-.037,14.608S.764,8.14-5.184,0Z" transform="translate(-0.097 0.185)"/><path class="ad" d="M-4.171,79.735s-8.718-29.886-5.812-38.8S0,4.423,0,0" transform="translate(-5.851 9.928)"/></g></g><g transform="translate(70.229 9.615)"><path class="ae" d="M2.452,5.085q3.479-10.21,12.442.081C23.857,15.457,35.475,3.616,35.3,21.6s28.586-3.472,20.464,26.7c-4.645,17.254-29.689,13.482-43.3-2.439C2.279,33.937,2.352,10.526,1.145,9.608Q-1.675,7.463,2.452,5.085Z" transform="translate(1.523 2.022)"/><ellipse class="af" cx="4.615" cy="5.008" rx="4.615" ry="5.008" transform="translate(0.301 0.367)"/></g><g transform="translate(37.322)"><path class="ag" d="M1.58.354,4.153,0,20.039,2.944l4.783,5.211,2.819,7.434a8.736,8.736,0,0,0,1.382,6.5q1.844,2.411,6.552,3.877-11,12.088-16.543,13.419c-5.543,1.331-3.106-4.091.535-11.168,2.427-4.717-.325-6.729-3.47-7.848a27.907,27.907,0,0,1-5.059,2.7c-1,.258-4.581-3.554-7.337-8.3-.284-.489-2.253-1.984-2.515-2.489-.583-1.124.412-1.324.107-2.582C1.062,8.735-.013,7.549,0,5.92A19.526,19.526,0,0,1,1.58.354Z" transform="translate(6.76 15.852)"/><path class="ae" d="M7.832,26.819c-.592,1.105,2.016,2.316,2.725,3.641C11.576,31.6-.647,29.636.027,17.068S8.473,5.2,10.614,4.844s8.073-6.708,17-4.3S38.731,8.7,38.622,17.038C38.491,27.1,34.9,32.91,32.753,33.173q-3.6.441-11.735-4,3.327-.96,1.843-4.792c-1.484-3.833-5.124-2.516-5.565.615L15.8,22.739l-8.728.156Q8.555,25.468,7.832,26.819Z" transform="translate(0.135 0.157)"/></g><path class="ah" d="M14.367,1.538q-4.057,5.68-.39,7.574T29.637,0Q45.295,6.337,48.5,10.065T45.58,43.119q-6.465,14.315-11.2,18.922c-4.579,4.457-15.812,4.1-24.5,4.683C5.06,67.05,1.9,66.542,0,60.027,4.628,52.764,6.746,45,6.746,41.9S5.2,31.256,2.122,19.244L8.912,4.238Z" transform="translate(49.84 41.734)"/><path class="ag" d="M8.359,16.274l-4.467-4.5Q0,9.284,0,8.365c2.156,0,1.713-2.814,2.446-4.646.924,1.035-1.019-4.2,0-3.682Q3.464.557,6.822,9.089l5.211,4.377Z" transform="translate(0.023 22.611)"/><g transform="translate(78.693 43.576)"><path class="b" d="M4.563,10.53S-2.994,39.234,1.964,56-1.161,92.245.735,101.5c23.49,5.586,20.742,14.332,20.742,14.332s4.472-5.723,4.008-25.134-1.105-20.491-1.823-29.327a204.4,204.4,0,0,1,0-22L16.948,5.795s-3.883-2.227-5.885-3.206S5.092,0,5.092,0Z" transform="translate(0.253 0.11)"/><g class="ai"><path class="aj" d="M9.236,18.525s-3.685-4.943,0-16.241c.871-2.67,4.54-3.4,9.778,0,6.28,4.074,15.864,21.394,11.388,34.1C23.507,55.942,12.145,61.3,5.866,62.585c-1.2.245-1.453-.351-3.96,2.244-4.267,4.417,1.018-10.9,1.018-10.9S15.016,36.8,14.006,31,9.236,18.525,9.236,18.525Z" transform="translate(1.406 11.694)"/></g></g><g transform="translate(70.229 48.477)"><path class="ag" d="M18.55,3.738a36.054,36.054,0,0,1-6.642,7.082C8.071,13.951,6,16.447,5.515,16.191s1.619-2.7,1.221-2.55c-.9.337-3.284,3.277-3.859,3q-.269-.129,2.5-4.109Q1.269,15.987.823,15.475c-.446-.512,3.745-3.709,3.633-3.9C4.26,11.244.092,13.09.007,12.737c-.222-.927,4.784-3.1,5.693-3.844,2.294-1.879-2-1.675-1.91-2.67q.087-.994,6.624-.008L16.236,0Z" transform="translate(0.38 59.68)"/><path class="b" d="M6.15,18.525s-3.685-4.943,0-16.241c.871-2.67,4.54-3.4,9.778,0,6.28,4.074,14.072,23.557,9.6,36.259-8.211,23.3-15.65,23.782-20.244,26.708S0,61.416,0,61.416s12.95-18.8,11.94-24.6S6.15,18.525,6.15,18.525Z" transform="translate(12.956 0.386)"/></g><g transform="translate(5.854 32.522)"><path class="b" d="M54.362,11.912s-2.825,9.776-4.112,13.76a22.874,22.874,0,0,0-.955,9.884c.864,7.766,4.929,11.3,2.846,29.872C51.326,72.69,45.706,82.1,44.824,90.2c-1.375,12.615.847,16.784,0,18.87-1.159,2.856-13.529.231-19.719,6.71-1.994-3.854,5.58-17.445,5.58-19.521s.258-17.666,6.619-29.1S42.165,33.7,42.165,33.7,26.179,30.622,18.78,25.672,0,4.311,0,4.311,1.7,0,3.895,0,20.974,13.529,32.481,15.17c4.824.688,8.7-2.167,12.343-2.99,5.8-1.308,12.669-2.229,13.372-2.47a6.349,6.349,0,0,1-.42,1.07C56.619,10.5,54.362,11.912,54.362,11.912Z" transform="translate(0.099 0.286)"/><g class="ak"><path class="al" d="M24,9.6a19.372,19.372,0,0,1,1.3-6.6C26.523.453,25.985,0,25.985,0S12.615,6.6,3.6,2.993s4.541,9.894,4.541,9.894Z" transform="translate(18.078 25.815)"/></g></g></g><g transform="translate(424 176)"><g transform="translate(-54.111 45.649)"><path class="c" d="M-10.2.148l-65.063,28.04a1.864,1.864,0,0,0-.967,2.43l7.662,18.327a1.815,1.815,0,0,0,2.393.982l65.063-28.04a1.864,1.864,0,0,0,.967-2.43L-7.808,1.13A1.815,1.815,0,0,0-10.2.148Z" transform="translate(-0.162 0.321)"/><g class="am"><path class="an" d="M-59.925,27.662l-.417-.189L-78.059,67.746l.417.189Zm10.644-6.14-.416-.189L-67.414,61.606l.417.189Zm-19.656,8.455-.413-.2L-82.407,57.771l.412.2ZM-38.785,15.5l-.417-.189L-56.919,55.583l.417.189Zm-36.68,12.167-.412-.2L-88.936,55.461l.412.2Zm46.492-16.591-.417-.189L-47.107,51.16l.417.189ZM-18.437,6.2l-.417-.189L-36.57,46.28l.417.189Zm8.163-1.5-.416-.189L-28.407,44.781l.417.189ZM0,.189-.417,0-18.133,40.273l.417.189Z" transform="translate(9.376 -11.304)"/></g></g><g transform="translate(-8.036 77.564)"><g transform="translate(-39.046)"><path class="ag" d="M-.027,1.8c-.05-.562-3.305-3.757-6.837-.006s-4.472,5.094-6.1,6.5a8.821,8.821,0,0,1-3.419,1.9l6.7.4L-.021,9.432Q.024,2.366-.027,1.8Z" transform="translate(-44.08 45.672)"/><path class="ao" d="M-7.884,42.459,0,19.4Q-30.333-6.021-43.376,1.869C-56.418,9.76-53.525,47.352-53.658,48.437s7.676,4.118,9.135,1.132,9.665-20.989,10.472-27.6Q-28.71,29.114-7.884,42.459Z" transform="translate(-0.256 0.207)"/><path class="ab" d="M-1.338.085C-2.729-.611-4.475,3.18-7.024,3.18S-11.159-.262-11.811.085c-1.9,1.015-4.668,1.508-7.71,2.7C-27,5.724-27.729,6.146-26.64,10.51q0,1.455,25.5,1.455A19.632,19.632,0,0,0-.028,6.282C.052,3.642.052.781-1.338.085Z" transform="translate(-42.738 50.813)"/></g><g transform="translate(0 17.041)"><path class="ag" d="M-13.5,8.8-2.867,6.405,0,7.364-4.353,1.6-11.933,0Z" transform="translate(-12.008 32.782)"/><path class="ac" d="M-72.392,29.64C-66.228,48.7-7.376,45.105-3.44,43.237c2.246-1.066-.091-10.256-1.33-10.7-2.878-1.042-43.011-4.626-35.3-2.892S2.479,25.59-.14,9.945-25.914,3.267-25.914,3.267-78,12.3-72.392,29.64Z" transform="translate(-18.397 0.297)"/><path class="ab" d="M-20.9,7.168c.291,1.349,3.424.275,4.842,1.993s-.086,4.822.517,5.056c1.762.683,3.641,2.254,6.159,3.6,6.2,3.307,6.891,3.546,9.31.231Q.941,17.187-13.238,0a18.4,18.4,0,0,0-4.556,2.611C-19.668,4.119-21.186,5.819-20.9,7.168Z" transform="translate(-0.222 26.116)"/><path class="ad" d="M0,22.119s-42.951-3.336-35.1-9.978S-14.294,0-14.294,0" transform="translate(-34.228 16.362)"/></g></g><g transform="translate(-23.13 40.802)"><path class="u" d="M-9.313,1.236c-7.158-4.209-14.431,3.346-16.353,7.551s-7.374,4.252-5.1,23.3-1.269,18.291-1.269,18.291-9.307-1.419-5.133,9.6S-28.259,71.019-19.637,72.1s14.889-1.849,18.422-6.045-3.44-17.873,0-27.56c2.667-7.51.132-22.909,0-23.312C-3.258,8.926-2.155,5.445-9.313,1.236Z" transform="translate(-0.185 0.263)"/><path class="ap" d="M-24.872,69.466l.186-.222A1.956,1.956,0,0,1-24.437,69a1.983,1.983,0,0,1,2.813.267,1.889,1.889,0,0,0,.278.278,1.93,1.93,0,0,0,2.734-.3l.229-.287a2.114,2.114,0,0,1,.212-.229,2.087,2.087,0,0,1,2.974.121,2.128,2.128,0,0,0,.189.183,2.144,2.144,0,0,0,3.046-.25l.186-.221a2.089,2.089,0,0,1,.248-.248,1.984,1.984,0,0,1,2.813.268,1.866,1.866,0,0,0,.291.287,1.91,1.91,0,0,0,2.7-.322l.2-.253a2.114,2.114,0,0,1,.223-.243A2.065,2.065,0,0,1-3.736,67.5a16.226,16.226,0,0,0,2.182-2,1.842,1.842,0,0,1-1-.385l-1.25-.969a1.645,1.645,0,0,0-.313-.193,1.691,1.691,0,0,0-2.261.827,1.642,1.642,0,0,1-.219.35,1.629,1.629,0,0,1-2.31.227l-.945-.787a1.792,1.792,0,0,0-.33-.218,1.789,1.789,0,0,0-2.417.8,1.881,1.881,0,0,1-.184.3,1.85,1.85,0,0,1-2.612.348l-1.233-.957a1.766,1.766,0,0,0-.3-.19,1.726,1.726,0,0,0-2.315.821,1.723,1.723,0,0,1-.217.343,1.66,1.66,0,0,1-2.355.229l-.944-.787a1.788,1.788,0,0,0-.331-.219,1.787,1.787,0,0,0-2.416.8,1.889,1.889,0,0,1-.184.3,1.849,1.849,0,0,1-2.612.347l-1.249-.969a1.674,1.674,0,0,0-.313-.193,1.691,1.691,0,0,0-2.261.826,1.7,1.7,0,0,1-.219.351,1.645,1.645,0,0,1-.319.3,10.957,10.957,0,0,0,2.783,2.082,2.068,2.068,0,0,1,1.775.663c.044.049.09.094.139.139a18.35,18.35,0,0,0,1.917.513A2.146,2.146,0,0,0-24.872,69.466Zm-6.6-10.21.2-.252a2.115,2.115,0,0,1,.222-.244,2.067,2.067,0,0,1,2.944.12,2.129,2.129,0,0,0,.189.183,2.144,2.144,0,0,0,3.047-.25l.186-.221a2.024,2.024,0,0,1,.248-.248,1.984,1.984,0,0,1,2.813.268,1.934,1.934,0,0,0,.278.278,1.93,1.93,0,0,0,2.734-.3l.229-.286a2.033,2.033,0,0,1,.212-.229A2.087,2.087,0,0,1-15.2,58.2a2.129,2.129,0,0,0,.189.183,2.144,2.144,0,0,0,3.046-.25l.186-.221a2.089,2.089,0,0,1,.248-.248,1.983,1.983,0,0,1,2.813.268,1.949,1.949,0,0,0,.291.287,1.911,1.911,0,0,0,2.7-.323l.2-.252A2.113,2.113,0,0,1-5.3,57.4a2.067,2.067,0,0,1,2.944.119,2.412,2.412,0,0,0,.188.184,2.14,2.14,0,0,0,1.781.486c-.137-1.075-.324-2.218-.526-3.411a1.842,1.842,0,0,1-1.64-.319l-1.25-.969a1.645,1.645,0,0,0-.313-.193,1.691,1.691,0,0,0-2.261.827,1.642,1.642,0,0,1-.219.35,1.629,1.629,0,0,1-2.31.227l-.945-.787a1.8,1.8,0,0,0-.33-.219,1.79,1.79,0,0,0-2.417.8,1.923,1.923,0,0,1-.184.3,1.849,1.849,0,0,1-2.612.347l-1.233-.957a1.761,1.761,0,0,0-.3-.189,1.726,1.726,0,0,0-2.315.821,1.691,1.691,0,0,1-.217.342,1.66,1.66,0,0,1-2.355.23l-.944-.787a1.834,1.834,0,0,0-.331-.219,1.788,1.788,0,0,0-2.416.8,1.84,1.84,0,0,1-.184.3,1.85,1.85,0,0,1-2.612.348l-1.249-.97a1.774,1.774,0,0,0-.313-.193,1.692,1.692,0,0,0-2.261.827,1.693,1.693,0,0,1-.219.35,1.629,1.629,0,0,1-2.311.227l-.945-.787a1.816,1.816,0,0,0-.329-.218,1.787,1.787,0,0,0-2.248.525,23.058,23.058,0,0,0,1.013,3.355,1.982,1.982,0,0,1,2.7.355,1.906,1.906,0,0,0,.291.287A1.906,1.906,0,0,0-32.982,60,1.911,1.911,0,0,0-31.47,59.257Zm-1.165-9.943q-.506-.057-.969-.073a1.9,1.9,0,0,0,.623.1A1.931,1.931,0,0,0-32.636,49.314Zm7.764-1.153.186-.221a2.024,2.024,0,0,1,.248-.248,1.983,1.983,0,0,1,2.813.268,1.928,1.928,0,0,0,.278.277,1.929,1.929,0,0,0,2.734-.3l.229-.286a2.041,2.041,0,0,1,.212-.229,2.087,2.087,0,0,1,2.974.121,2.275,2.275,0,0,0,.189.184,2.145,2.145,0,0,0,3.046-.25l.186-.222a2.016,2.016,0,0,1,.248-.248,1.982,1.982,0,0,1,2.813.268,1.949,1.949,0,0,0,.291.287,1.911,1.911,0,0,0,2.7-.323l.2-.252a2.122,2.122,0,0,1,.223-.244,2.067,2.067,0,0,1,2.944.12,2.249,2.249,0,0,0,.188.183c.049.042.1.081.149.118-.094-1.047-.152-2.094-.153-3.132a1.819,1.819,0,0,1-.381-.229l-1.25-.97a1.742,1.742,0,0,0-.313-.193,1.693,1.693,0,0,0-2.261.827,1.62,1.62,0,0,1-.219.35,1.628,1.628,0,0,1-2.31.227l-.945-.787a1.792,1.792,0,0,0-.33-.218,1.789,1.789,0,0,0-2.417.8,1.923,1.923,0,0,1-.184.3,1.849,1.849,0,0,1-2.612.347l-1.233-.957a1.708,1.708,0,0,0-.3-.189,1.725,1.725,0,0,0-2.315.82,1.673,1.673,0,0,1-.217.343,1.659,1.659,0,0,1-2.355.229l-.944-.787a1.834,1.834,0,0,0-.331-.219,1.788,1.788,0,0,0-2.416.8,1.923,1.923,0,0,1-.184.3,1.849,1.849,0,0,1-2.612.347l-1.249-.969a1.674,1.674,0,0,0-.313-.193h0a16.532,16.532,0,0,1-.416,3.649,2.068,2.068,0,0,1,2.177.575,2.129,2.129,0,0,0,.189.183,2.136,2.136,0,0,0,1.4.52A2.148,2.148,0,0,0-24.872,48.161Zm0-10.652.186-.222a2.016,2.016,0,0,1,.248-.248,1.982,1.982,0,0,1,2.813.268,1.928,1.928,0,0,0,.278.277,1.93,1.93,0,0,0,2.734-.3l.229-.286a2.041,2.041,0,0,1,.212-.229,2.087,2.087,0,0,1,2.974.121,2.129,2.129,0,0,0,.189.183,2.144,2.144,0,0,0,3.046-.25l.186-.221a2.089,2.089,0,0,1,.248-.248,1.984,1.984,0,0,1,2.813.268,1.866,1.866,0,0,0,.291.287,1.91,1.91,0,0,0,2.7-.322l.2-.253a2.191,2.191,0,0,1,.223-.243,2.067,2.067,0,0,1,2.944.12,2.249,2.249,0,0,0,.188.183,2.141,2.141,0,0,0,1.18.509,22.159,22.159,0,0,0,.746-3.786,1.847,1.847,0,0,1-2.31.034l-1.25-.97a1.692,1.692,0,0,0-.313-.193,1.692,1.692,0,0,0-2.261.827,1.642,1.642,0,0,1-.219.35,1.628,1.628,0,0,1-2.31.227l-.945-.787a1.792,1.792,0,0,0-.33-.218,1.789,1.789,0,0,0-2.417.8,1.84,1.84,0,0,1-.184.3,1.849,1.849,0,0,1-2.612.348l-1.233-.957a1.708,1.708,0,0,0-.3-.189,1.725,1.725,0,0,0-2.315.82,1.723,1.723,0,0,1-.217.343,1.66,1.66,0,0,1-2.355.229l-.944-.787a1.788,1.788,0,0,0-.331-.219,1.787,1.787,0,0,0-2.416.8,1.923,1.923,0,0,1-.184.3,1.849,1.849,0,0,1-2.612.347l-1.249-.969a1.674,1.674,0,0,0-.313-.193,1.687,1.687,0,0,0-.639-.161q.217,2.007.363,3.767a2.07,2.07,0,0,1,2.035.616,2.276,2.276,0,0,0,.189.184,2.138,2.138,0,0,0,1.4.52A2.147,2.147,0,0,0-24.872,37.508Zm0-10.652.186-.222a2.024,2.024,0,0,1,.248-.248,1.984,1.984,0,0,1,2.813.268,1.934,1.934,0,0,0,.278.278,1.929,1.929,0,0,0,2.734-.3l.229-.286a2.114,2.114,0,0,1,.212-.229,2.087,2.087,0,0,1,2.974.121,2.129,2.129,0,0,0,.189.183,2.144,2.144,0,0,0,3.046-.25l.186-.221a2.089,2.089,0,0,1,.248-.248,1.983,1.983,0,0,1,2.813.268,1.906,1.906,0,0,0,.291.287,1.911,1.911,0,0,0,2.7-.323l.2-.252a2.114,2.114,0,0,1,.223-.243,2.067,2.067,0,0,1,2.944.119,2.412,2.412,0,0,0,.188.184A2.143,2.143,0,0,0,0,26.119c-.036-1.268-.105-2.515-.193-3.7a1.847,1.847,0,0,1-2.36.076l-1.25-.969a1.645,1.645,0,0,0-.313-.193,1.691,1.691,0,0,0-2.261.827,1.642,1.642,0,0,1-.219.35,1.629,1.629,0,0,1-2.31.227l-.945-.787a1.792,1.792,0,0,0-.33-.218,1.789,1.789,0,0,0-2.417.8,1.923,1.923,0,0,1-.184.3,1.85,1.85,0,0,1-2.612.348l-1.233-.958a1.761,1.761,0,0,0-.3-.189,1.726,1.726,0,0,0-2.315.821,1.723,1.723,0,0,1-.217.343,1.661,1.661,0,0,1-2.355.23l-.944-.787a1.788,1.788,0,0,0-.331-.219,1.787,1.787,0,0,0-2.416.8,1.84,1.84,0,0,1-.184.3,1.848,1.848,0,0,1-2.612.348l-1.249-.97a1.774,1.774,0,0,0-.313-.193,1.68,1.68,0,0,0-1.419-.011c-.01,1.257.034,2.653.14,4.207.031-.031.061-.062.094-.093a2.067,2.067,0,0,1,2.944.12,2.129,2.129,0,0,0,.189.183,2.138,2.138,0,0,0,1.4.521A2.146,2.146,0,0,0-24.872,26.856Zm0-10.653.186-.221a2.024,2.024,0,0,1,.248-.248A1.984,1.984,0,0,1-21.623,16a1.934,1.934,0,0,0,.278.278,1.93,1.93,0,0,0,2.734-.3l.229-.286a2.042,2.042,0,0,1,.212-.229,2.088,2.088,0,0,1,2.974.121,2.275,2.275,0,0,0,.189.184,2.144,2.144,0,0,0,3.046-.25l.186-.222a2.081,2.081,0,0,1,.248-.247,1.983,1.983,0,0,1,2.813.268,1.949,1.949,0,0,0,.291.287,1.911,1.911,0,0,0,2.7-.323l.2-.252a2.122,2.122,0,0,1,.223-.244,2.068,2.068,0,0,1,2.944.12,2.412,2.412,0,0,0,.188.184A2.136,2.136,0,0,0-.95,15.6c-.124-.827-.217-1.331-.239-1.4-.229-.7-.418-1.365-.584-2a1.837,1.837,0,0,1-.78-.356l-1.25-.969a1.645,1.645,0,0,0-.313-.193,1.692,1.692,0,0,0-2.261.826,1.626,1.626,0,0,1-.219.351,1.629,1.629,0,0,1-2.31.227l-.945-.787a1.752,1.752,0,0,0-.33-.219,1.79,1.79,0,0,0-2.417.8,1.923,1.923,0,0,1-.184.3,1.849,1.849,0,0,1-2.612.347l-1.233-.957a1.761,1.761,0,0,0-.3-.189,1.725,1.725,0,0,0-2.315.82,1.673,1.673,0,0,1-.217.343,1.66,1.66,0,0,1-2.355.23l-.944-.788a1.834,1.834,0,0,0-.331-.219,1.788,1.788,0,0,0-2.416.8,1.881,1.881,0,0,1-.184.3,1.85,1.85,0,0,1-2.612.348l-.782-.608a12.743,12.743,0,0,0-1.358,3.153,2.067,2.067,0,0,1,2.336.515,2.129,2.129,0,0,0,.189.183,2.136,2.136,0,0,0,1.4.52A2.148,2.148,0,0,0-24.872,16.2ZM-18.611,5.1l.229-.287a2.114,2.114,0,0,1,.212-.229A2.087,2.087,0,0,1-15.2,4.7a2.129,2.129,0,0,0,.189.183,2.144,2.144,0,0,0,3.046-.25l.186-.221a2.089,2.089,0,0,1,.248-.248,1.984,1.984,0,0,1,2.813.268,1.866,1.866,0,0,0,.291.287A1.91,1.91,0,0,0-5.72,4.4l.2-.253A2.114,2.114,0,0,1-5.3,3.9a2.131,2.131,0,0,1,.307-.239A13.5,13.5,0,0,0-7.367,1.5a1.626,1.626,0,0,1-1.538-.3L-9.851.415A1.792,1.792,0,0,0-10.181.2,1.789,1.789,0,0,0-12.6,1a1.881,1.881,0,0,1-.184.3,1.85,1.85,0,0,1-2.612.348L-16.627.684a1.766,1.766,0,0,0-.3-.19,1.726,1.726,0,0,0-2.315.821,1.723,1.723,0,0,1-.217.343,1.663,1.663,0,0,1-1.759.549A19.079,19.079,0,0,0-23.4,4.4a1.987,1.987,0,0,1,1.775.718,1.889,1.889,0,0,0,.278.278,1.923,1.923,0,0,0,1.219.435A1.932,1.932,0,0,0-18.611,5.1Z" transform="translate(-0.186 1.246)"/><path class="aq" d="M-29.085,30.53q.043.39.091.792,2.271,19.05-1.269,18.291-3.239-.494-4.845.519,15.982,1.559,22.1-2.559C-4.141,41.6,1.153,24.017-.214,13.89S-6.051.888-9,.206-22,.065-22.94,9.226A75.986,75.986,0,0,1-27.2,27.52a10.108,10.108,0,0,1-1.881,3.009Z" transform="translate(-1.959 1.03)"/></g><g transform="translate(-53.713)"><path class="ar" d="M14.356,25.348c-8.589,7.417-14.583,2.1-12.987,0C2.48,23.887,1.694,16.3,0,9.627,8.545,2.2,13-1.763,12.383.76c-.929,3.784-.186.42-.372,5.887a12.11,12.11,0,0,1-1.99,7.571c-2.155,3.691,3.741,7.751,4.335,10.844Z" transform="translate(11.746 19.731)"/><path class="ae" d="M6.229,21.321s-3.777-3.074-5.218-6.6S-1.638,2.78,7.14.86C12.792-.375,21.125-.195,23.779.86c8.293,3.3,10.293,8.313,10.293,28.029S53.445,46.937,52.266,57.14s-8.64,15.271-18.194,11.034-14.307-29.517-12.7-37.382S6.229,21.321,6.229,21.321Z" transform="translate(0.245 0.056)"/><path class="as" d="M1.579,10.651l-.12-3c-.04-1-.44-4.245-.365-4.816C1.316,1.118,1.811-.576,2.327.189,4.66,3.651,7.465,6.252,11.864,6.639c.316.028,2.955,2.385,3.3,2.4.446.022.131-1.985.63-1.985.989-3.152,4.843-3.152,5,1.228.042,1.145-1.011,2.769-1.323,4.607-.219,1.287.477,2.706,0,4.238s-3.93,5.146-8.369,6.569q-3.593,1.152-4.751.149c-1.371-1.187-2.8-2.144-4.028-7.107C1.547,16.522,0,16.579,0,15.6,0,15.234,1.132,12.141,1.579,10.651Z" transform="translate(1.989 11.425)"/></g><g transform="translate(-26.704 39.59)"><path class="ag" d="M-4.2,16.229,0,12.966-5.933,7.9Q-6.253.623-7.413.022c-.537-.278-.516,2.507-.846,3.165-.384.763-1.111-.6-1.676-1.241-.706-.8-1.808-2.166-2.644-1.915-.318.1-3.084,1.142-3.628,2.37a4.521,4.521,0,0,0,.446,2.677q1.414,2.49,6.481,5.949Z" transform="translate(-46.733 15.267)"/><path class="u" d="M-8.866.125C-11.806-.561-20.16,1.382-21.1,10.6s-.645,18.2-3.9,21.632-5.8.461-23.989-6.762a4.028,4.028,0,0,0-4.155,3.378c-.7,3.589,0,3.384,0,3.384s22.819,21.9,32.84,18.37S1.252,24.075-.11,13.889-5.927.811-8.866.125Z" transform="translate(-0.228 0.28)"/><path class="at" d="M-20.3,48.812c.121-.042.242-.088.364-.136a1.664,1.664,0,0,1,0-.444L-19.784,47a1.93,1.93,0,0,0,.007-.4,1.8,1.8,0,0,0-1.945-1.659,1.828,1.828,0,0,1-.344,0,1.886,1.886,0,0,1-1.67-2.068l.149-1.573a1.745,1.745,0,0,0,0-.363,1.736,1.736,0,0,0-1.907-1.56,1.664,1.664,0,0,1-.4,0,1.7,1.7,0,0,1-1.435-1.91l.159-1.234a1.871,1.871,0,0,0,.008-.4,1.8,1.8,0,0,0-1.945-1.659,1.746,1.746,0,0,1-.343,0,1.885,1.885,0,0,1-1.67-2.067l.086-.911c-1.563-.55-3.559-1.423-6.23-2.588l-.011.034a1.936,1.936,0,0,0-.086.4,1.949,1.949,0,0,0,1.7,2.16l.314.035a2.048,2.048,0,0,1,.321.063,2.124,2.124,0,0,1,1.454,2.6,2.312,2.312,0,0,0-.053.261,2.192,2.192,0,0,0,1.818,2.495l.283.042a1.9,1.9,0,0,1,.338.083,2.042,2.042,0,0,1,1.262,2.569,2.03,2.03,0,0,0-.086.388,1.97,1.97,0,0,0,1.694,2.2l.36.044a2.081,2.081,0,0,1,.3.061,2.147,2.147,0,0,1,1.47,2.63,2.152,2.152,0,0,0-.054.26,2.192,2.192,0,0,0,1.818,2.495l.283.043a1.893,1.893,0,0,1,.338.082,2.023,2.023,0,0,1,1.353,1.715A8.633,8.633,0,0,0-20.3,48.812Zm-18.711-6.754.985-1.219a1.762,1.762,0,0,0,.2-.3,1.783,1.783,0,0,0-.727-2.382,1.681,1.681,0,0,1-.33-.232,1.728,1.728,0,0,1-.144-2.4l.807-.932A1.812,1.812,0,0,0-38,34.258a1.85,1.85,0,0,0-.7-2.484,1.82,1.82,0,0,1-.284-.2,1.923,1.923,0,0,1-.252-2.668l.7-.867c-.956-.416-1.99-.863-3.112-1.341a2.147,2.147,0,0,1-.608,2.3,2.13,2.13,0,0,0-.186.185,2.23,2.23,0,0,0,.14,3.106l.212.2a1.975,1.975,0,0,1,.236.262,2.06,2.06,0,0,1-.362,2.85,1.981,1.981,0,0,0-.283.273,2.008,2.008,0,0,0,.2,2.791l.275.242a2.128,2.128,0,0,1,.218.223,2.163,2.163,0,0,1,.5,1.62q1.08.829,2.119,1.578A1.906,1.906,0,0,1-39.016,42.059Zm33.27-9.472A1.83,1.83,0,0,1-8.325,32.3l-.985-1.219a1.735,1.735,0,0,0-.253-.255,1.7,1.7,0,0,0-2.43.274,1.722,1.722,0,0,1-.286.286,1.646,1.646,0,0,1-2.338-.314l-.743-.987a1.8,1.8,0,0,0-.272-.29,1.766,1.766,0,0,0-2.524.23,1.864,1.864,0,0,1-.244.247,1.83,1.83,0,0,1-2.613-.257l-1-1.237a1.745,1.745,0,0,0-.262-.26,1.664,1.664,0,0,0-1.326-.345A7.379,7.379,0,0,1-25,30.443a3.84,3.84,0,0,1-2.841,1.424c.028.047.054.1.078.145a1.969,1.969,0,0,0,.219.348,1.893,1.893,0,0,0,2.7.3l.247-.2a2.125,2.125,0,0,1,.27-.187,2.053,2.053,0,0,1,2.832.79,2.236,2.236,0,0,0,.143.223,2.125,2.125,0,0,0,3.013.452l.23-.175a1.993,1.993,0,0,1,.3-.186,1.972,1.972,0,0,1,2.672.906,1.955,1.955,0,0,0,.209.336,1.911,1.911,0,0,0,2.721.334l.285-.229a1.994,1.994,0,0,1,.257-.176,2.075,2.075,0,0,1,2.861.8,2.129,2.129,0,0,0,.142.223,2.161,2.161,0,0,0,.844.693C-7.1,35.071-6.4,33.839-5.746,32.586Zm-42.621,1,1.306-.85a1.764,1.764,0,0,0,.278-.226,1.79,1.79,0,0,0,.03-2.495A1.681,1.681,0,0,1-47,29.695a1.722,1.722,0,0,1,.59-2.331l1.05-.632a1.818,1.818,0,0,0,.316-.24,1.841,1.841,0,0,0,.535-.99q-1.731-.718-3.7-1.509a2.042,2.042,0,0,1-1.253,2.446,1.9,1.9,0,0,0-.353.17,2,2,0,0,0-.655,2.717l.187.316a2.157,2.157,0,0,1,.139.282,2.164,2.164,0,0,1-.784,2.616q.971.9,1.917,1.759A1.868,1.868,0,0,1-48.367,33.59Zm30.777-8.006.186-.223a1.963,1.963,0,0,1,.248-.249,1.964,1.964,0,0,1,2.8.27,1.889,1.889,0,0,0,.277.279,1.912,1.912,0,0,0,2.725-.3l.227-.288a2.051,2.051,0,0,1,.212-.23,2.066,2.066,0,0,1,2.963.122,2.413,2.413,0,0,0,.188.184A2.124,2.124,0,0,0-4.724,24.9l.185-.223a2.024,2.024,0,0,1,.247-.249,1.959,1.959,0,0,1,2.2-.233q.441-1.269.8-2.506a1.62,1.62,0,0,1-.383-.241l-.942-.791a1.788,1.788,0,0,0-.329-.22,1.776,1.776,0,0,0-2.409.806,1.962,1.962,0,0,1-.183.3,1.832,1.832,0,0,1-2.6.35l-1.229-.963a1.712,1.712,0,0,0-.3-.19,1.713,1.713,0,0,0-2.307.825,1.728,1.728,0,0,1-.215.345,1.646,1.646,0,0,1-2.348.231l-.941-.792a1.779,1.779,0,0,0-.329-.22,1.774,1.774,0,0,0-2.407.8,1.94,1.94,0,0,1-.184.3,1.83,1.83,0,0,1-2.6.349l-1.154-.9c-.137,1.183-.3,2.3-.509,3.326a2.048,2.048,0,0,1,1.858.654,2.14,2.14,0,0,0,.188.184,2.119,2.119,0,0,0,1.394.524A2.129,2.129,0,0,0-17.59,25.584Zm-.456-10.248.186-.223a1.962,1.962,0,0,1,.247-.249,1.964,1.964,0,0,1,2.8.269,1.94,1.94,0,0,0,.277.28,1.912,1.912,0,0,0,2.725-.3l.227-.288a2.132,2.132,0,0,1,.212-.23,2.067,2.067,0,0,1,2.963.122,2.271,2.271,0,0,0,.188.184,2.124,2.124,0,0,0,3.037-.252l.185-.223a2.089,2.089,0,0,1,.247-.249,1.964,1.964,0,0,1,2.8.27,2,2,0,0,0,.29.289,1.882,1.882,0,0,0,1.611.372,15.156,15.156,0,0,0-.067-3q-.054-.4-.113-.785A1.61,1.61,0,0,1-2.135,11.2l-.942-.791a1.743,1.743,0,0,0-.329-.22,1.775,1.775,0,0,0-2.409.806,2.008,2.008,0,0,1-.183.3,1.832,1.832,0,0,1-2.6.349l-1.229-.962a1.712,1.712,0,0,0-.3-.19,1.713,1.713,0,0,0-2.307.824,1.668,1.668,0,0,1-.216.345A1.643,1.643,0,0,1-15,11.885l-.941-.791a1.83,1.83,0,0,0-.329-.22,1.774,1.774,0,0,0-2.407.8,1.9,1.9,0,0,1-.184.3,1.831,1.831,0,0,1-2.545.393c-.071.923-.136,1.835-.2,2.733a2.047,2.047,0,0,1,.338.3,2.275,2.275,0,0,0,.188.184,2.12,2.12,0,0,0,1.393.523A2.131,2.131,0,0,0-18.046,15.336Zm.755-10.31.185-.223a1.977,1.977,0,0,1,.248-.25,1.963,1.963,0,0,1,2.8.27,1.934,1.934,0,0,0,.277.279,1.911,1.911,0,0,0,2.725-.3l.228-.288a2.131,2.131,0,0,1,.211-.23,2.067,2.067,0,0,1,2.964.122,2.129,2.129,0,0,0,.188.184,2.123,2.123,0,0,0,3.036-.251l.186-.223a1.962,1.962,0,0,1,.247-.249A1.958,1.958,0,0,1-2.735,3.4,12.14,12.14,0,0,0-4.957.5a1.96,1.96,0,0,0-.1.181,1.9,1.9,0,0,1-.184.3,1.83,1.83,0,0,1-2.6.35L-9.075.365a1.678,1.678,0,0,0-.3-.191A1.713,1.713,0,0,0-11.684,1a1.707,1.707,0,0,1-.216.345,1.645,1.645,0,0,1-2.347.231l-.94-.792a1.756,1.756,0,0,0-.33-.22,1.744,1.744,0,0,0-.991-.188,10.754,10.754,0,0,0-3.776,4.937,2.116,2.116,0,0,0,1.352.488A2.132,2.132,0,0,0-17.291,5.027Z" transform="translate(-0.228 2.065)"/></g></g><g transform="translate(102 127)"><g transform="translate(107.796 15.082) rotate(16)"><path class="au" d="M-35.29.031c-6.783.692-4.445,16.355-6.307,19.251-1.861,2.875-7.1,3.747-6.364,10.013s5.779,6.056,6.381,11.262S-52.331,45.083-51.362,53.3s9.723,10.708,10.3,15.658-3.76,6.892-2.477,17.847,10.118,13.2,23.312,14.157,21.38-2.739,20.1-14.551S-15.424,74.938-17.153,68.457C-18.883,62-10.011,58.482-10.844,50.9S-25.023,43.673-25.7,37.619s9.765-9.356,9.071-15.646-3.346-7.225-8.35-9.39C-29.986,10.459-28.507-.661-35.29.031Z" transform="translate(-0.325 0.105)"/><path class="av" d="M-.547,14.332A.418.418,0,0,0,0,13.917a.728.728,0,0,0-.462-.729C-7.149,11.138-10.783,6.987-11.516.6a.66.66,0,0,0-.568-.6.456.456,0,0,0-.434.562C-11.719,7.52-7.679,12.133-.547,14.332Z" transform="translate(-21.242 81.095)"/><path class="av" d="M-.376,9.683a.457.457,0,0,0,.355-.622.679.679,0,0,0-.648-.54c-4.49.371-8.318-2.328-11.58-8.173a.578.578,0,0,0-.727-.3.53.53,0,0,0-.137.747C-9.61,7.061-5.332,10.082-.376,9.683Z" transform="translate(-25.264 59.527)"/><path class="av" d="M-.258,4.769a.331.331,0,0,0,.244-.436A.424.424,0,0,0-.454,4c-2.278.335-4.208-.9-5.855-3.78A.374.374,0,0,0-6.8.039a.372.372,0,0,0-.1.515C-5.088,3.711-2.853,5.146-.258,4.769Z" transform="translate(-34.502 29.46)"/><path class="av" d="M-5.628,5.424a.385.385,0,0,1-.341-.409.362.362,0,0,1,.359-.374C-3.279,4.756-1.651,3.327-.68.259A.337.337,0,0,1-.233.025.417.417,0,0,1-.02.534C-1.087,3.906-2.972,5.559-5.628,5.424Z" transform="translate(-28.887 24.625)"/><path class="av" d="M-9.887,9.093a.6.6,0,0,1-.493-.627.5.5,0,0,1,.526-.528C-5.682,8.345-2.75,5.874-.99.366A.473.473,0,0,1-.336.044.647.647,0,0,1-.031.816C-1.932,6.772-5.241,9.556-9.887,9.093Z" transform="translate(-17.647 52.281)"/><path class="av" d="M-9.887,8.674a.633.633,0,0,1-.493-.653.478.478,0,0,1,.526-.5C-5.682,8.125-2.75,5.786-.99.346A.454.454,0,0,1-.336.054.677.677,0,0,1-.031.842C-1.932,6.725-5.241,9.36-9.887,8.674Z" transform="translate(-9.748 80.424)"/><path class="aw" d="M-1.863,107.4a.959.959,0,0,0,.765.853c.374.038,1.145-.231,1.1-.665A62.63,62.63,0,0,1-2.057,96.538c-.8-7.015,1.489-18.515-.1-26.337C-3.741,62.4-12.39,47.631-15.5,36.047c-2.526-9.372-.8-17.964-.523-23.647A51.645,51.645,0,0,0-17.086,0c-.146.012,1.077,6.9.693,12.424-.384,5.51-1.847,12.791-.586,20.813C-14.633,48.2-4.9,61.388-3.782,71.317S-4.843,87.27-4.288,95.968Q-3.732,104.656-1.863,107.4Z" transform="translate(-17.872 9.894)"/></g><g transform="translate(0.613 19.114) rotate(-17)"><path class="b" d="M25.49,0c6.783,0,6.248,16.387,8.424,19.248s7.472,3.421,7.472,10.067-5.048,6.646-5.048,12.117S47.581,45.9,47.581,54.708s-8.469,11.4-8.469,16.629,4.577,7.427,4.577,19.093-8.645,13.389-21.839,13.389S0,99.548,0,87.882s14.087-10.95,15.1-17.489-8.253-10.1-8.253-17.671S20.19,45.151,20.19,38.964,9.435,29.971,9.435,23.66s2.528-7.439,7.25-10S18.707,0,25.49,0Z"/><path class="ax" d="M.608,14.306a.51.51,0,0,1-.6-.464.618.618,0,0,1,.383-.723C6.891,11.4,10.07,7.266,10.07.607a.562.562,0,0,1,.5-.607.562.562,0,0,1,.5.607C11.072,7.876,7.538,12.476.608,14.306Z" transform="translate(21.845 83.771)"/><path class="ax" d="M.421,10.227a.486.486,0,0,1-.41-.618.648.648,0,0,1,.62-.559C5.241,9.315,8.938,6.466,11.81.379a.57.57,0,0,1,.717-.34.557.557,0,0,1,.2.761C9.641,7.336,5.51,10.52.421,10.227Z" transform="translate(22.631 61.115)"/><path class="ax" d="M.288,5.4a.332.332,0,0,1-.281-.419.436.436,0,0,1,.421-.376c2.34.143,4.2-1.28,5.655-4.354A.386.386,0,0,1,6.57.027a.378.378,0,0,1,.137.515C5.114,3.919,2.954,5.568.288,5.4Z" transform="translate(28.045 29.696)"/><path class="ax" d="M6.465,5.4C3.8,5.568,1.639,3.919.046.542A.378.378,0,0,1,.183.027.386.386,0,0,1,.67.255c1.451,3.074,3.315,4.5,5.655,4.354a.436.436,0,0,1,.421.376A.332.332,0,0,1,6.465,5.4Z" transform="translate(21.461 25.4)"/><path class="ax" d="M11.375,9.5C6.708,9.759,2.909,6.816.069.8A.556.556,0,0,1,.264.039.568.568,0,0,1,.977.379C3.606,5.95,6.971,8.557,11.164,8.325a.649.649,0,0,1,.618.559A.483.483,0,0,1,11.375,9.5Z" transform="translate(13.256 53.782)"/><path class="ax" d="M11.375,9.5C6.708,9.759,2.909,6.816.069.8A.556.556,0,0,1,.264.039.568.568,0,0,1,.977.379C3.606,5.95,6.971,8.557,11.164,8.325a.649.649,0,0,1,.618.559A.483.483,0,0,1,11.375,9.5Z" transform="translate(8.468 82.064)"/><path class="ay" d="M4.02,110.532a.749.749,0,0,1-.677.8c-.374,0-1.184-.36-1.184-.8a63.742,63.742,0,0,0,.818-11.242C2.983,92.1-.62,80.134.093,72.194S7.8,49.158,9.578,37.146c1.451-9.774-1.241-18.552-2.158-24.37A54.519,54.519,0,0,1,7.083,0c.146,0-.292,7.138.712,12.776S11.08,25.852,10.738,34.2C10.1,49.739,1.854,63.245,1.854,73.4S4.731,89.911,5.163,98.889,4.02,110.532,4.02,110.532Z" transform="translate(18.853 10.024)"/></g><g transform="matrix(0.883, 0.469, -0.469, 0.883, 124.354, 46.261)"><path class="az" d="M-25.49,0c-6.783,0-6.248,13.989-8.424,16.432s-7.472,2.921-7.472,8.594,5.048,5.673,5.048,10.344S-47.581,39.18-47.581,46.7s8.469,9.733,8.469,14.2-4.577,6.34-4.577,16.3,8.645,11.43,21.839,11.43S0,84.983,0,75.023s-14.087-9.348-15.1-14.93,8.253-8.621,8.253-15.085S-20.19,38.545-20.19,33.263-9.435,25.585-9.435,20.2s-2.528-6.351-7.25-8.534S-18.707,0-25.49,0Z"/><path class="ba" d="M-.608,12.213a.5.5,0,0,0,.6-.4A.519.519,0,0,0-.395,11.2c-6.5-1.465-9.675-5-9.675-10.681a.51.51,0,0,0-.5-.518.51.51,0,0,0-.5.518C-11.072,6.724-7.538,10.65-.608,12.213Z" transform="translate(-21.845 71.514)"/><path class="ba" d="M-.439,8.339A.5.5,0,0,0,0,7.772a.528.528,0,0,0-.572-.457C-5.082,7.8-8.52,5.5-10.972.3a.517.517,0,0,0-.679-.259.506.506,0,0,0-.236.681C-9.254,6.305-5.412,8.878-.439,8.339Z" transform="translate(-23.058 52.368)"/><path class="ba" d="M-.3,4.415A.339.339,0,0,0,0,4.03a.355.355,0,0,0-.389-.308C-2.678,3.978-4.413,2.829-5.652.2A.351.351,0,0,0-6.114.031a.343.343,0,0,0-.163.461C-4.916,3.375-2.906,4.706-.3,4.415Z" transform="translate(-28.266 25.45)"/><path class="ba" d="M-6.01,4.415C-3.4,4.706-1.394,3.375-.034.492A.343.343,0,0,0-.2.031.351.351,0,0,0-.658.2C-1.9,2.829-3.632,3.978-5.919,3.722a.355.355,0,0,0-.389.308A.339.339,0,0,0-6.01,4.415Z" transform="translate(-21.682 21.782)"/><path class="ba" d="M-10.569,7.754C-6.008,8.24-2.476,5.861-.051.723A.5.5,0,0,0-.284.045.515.515,0,0,0-.959.3C-3.2,5.06-6.333,7.168-10.429,6.731a.528.528,0,0,0-.57.458A.492.492,0,0,0-10.569,7.754Z" transform="translate(-13.65 46.09)"/><path class="ba" d="M-10.569,7.754C-6.008,8.24-2.476,5.861-.051.723A.5.5,0,0,0-.284.045.515.515,0,0,0-.959.3C-3.2,5.06-6.333,7.168-10.429,6.731a.528.528,0,0,0-.57.458A.492.492,0,0,0-10.569,7.754Z" transform="translate(-8.862 70.233)"/><path class="ba" d="M-4.02,94.36a.682.682,0,0,0,.677.687c.374,0,1.184-.307,1.184-.687a46.684,46.684,0,0,1-.818-9.6C-2.983,78.626.62,68.409-.093,61.63S-7.8,41.966-9.578,31.711c-1.451-8.344,1.241-15.837,2.158-20.8A39.789,39.789,0,0,0-7.083,0c-.146,0,.292,6.094-.712,10.907S-11.08,22.07-10.738,29.2c.637,13.266,8.885,24.8,8.885,33.464s-2.877,14.1-3.309,21.759S-4.02,94.36-4.02,94.36Z" transform="translate(-18.853 8.557)"/></g><g transform="translate(35.887 119.083)"><path class="bb" d="M0,0H40.2L31.27,25.994H8.934Z" transform="translate(0.804 0.812)"/><path class="bc" d="M2.177,0H38.831a2.165,2.165,0,0,1,2.177,2.152v3.82a2.165,2.165,0,0,1-2.177,2.152H2.177A2.165,2.165,0,0,1,0,5.971V2.152A2.165,2.165,0,0,1,2.177,0Z"/></g></g><g transform="translate(170 211)"><g transform="translate(6.874 49.729)"><g class="bd" transform="translate(0 3.019)"><path class="bg" d="M 50.11615371704102 59.39125823974609 L 11.34832763671875 59.39125823974609 L 1.768620848655701 1.499999165534973 L 59.69586181640625 1.499999165534973 L 50.11615371704102 59.39125823974609 Z"/><path class="bh" d="M 3.537227630615234 3 L 12.62051391601562 57.89125823974609 L 48.84396743774414 57.89125823974609 L 57.92725372314453 3 L 3.537227630615234 3 M -3.814697265625e-06 0 L 61.46448516845703 0 L 51.38833236694336 60.89125823974609 L 10.07614898681641 60.89125823974609 L -3.814697265625e-06 0 Z"/></g><ellipse class="be" cx="20.152" cy="3.271" rx="20.152" ry="3.271" transform="translate(10.58 59.382)"/><ellipse class="be" cx="29.977" cy="3.271" rx="29.977" ry="3.271" transform="translate(0.504 0)"/></g><path class="u" d="M19.195,1.209,34.789,59.874a1.632,1.632,0,0,1-1.144,2L17.631,66.2a1.616,1.616,0,0,1-1.981-1.153L.056,6.378a1.632,1.632,0,0,1,1.144-2L17.214.056A1.616,1.616,0,0,1,19.195,1.209Z" transform="translate(0.168 11.915)"/><path class="bf" d="M.006,95.7,8.183,1.488A1.621,1.621,0,0,1,9.935.006L26.451,1.463a1.627,1.627,0,0,1,1.47,1.766L19.745,97.436a1.621,1.621,0,0,1-1.752,1.482L1.477,97.461A1.627,1.627,0,0,1,.006,95.7Z" transform="translate(18.79 0.063)"/><path class="u" d="M25,3.229l-5.251,60.5a1.621,1.621,0,0,1-1.752,1.482L1.477,63.758a1.627,1.627,0,0,1-1.47-1.766l5.251-60.5A1.621,1.621,0,0,1,7.01.006L23.526,1.463A1.627,1.627,0,0,1,25,3.229Z" transform="translate(31.777 28.328)"/><path class="b" d="M.063,78.371,22.021,1.181a1.616,1.616,0,0,1,2-1.118L39.958,4.67a1.632,1.632,0,0,1,1.109,2.017L19.11,83.876a1.616,1.616,0,0,1-2,1.118L1.172,80.387A1.632,1.632,0,0,1,.063,78.371Z" transform="translate(32.61 15.149)"/><path class="o" d="M12.124,61.034H10.076L0,0H.591A.439.439,0,0,0,.5.252C.5,2.063,13.925,3.531,30.48,3.531S60.457,2.063,60.457.252A.439.439,0,0,0,60.369,0h1.095L51.388,61.034H49.34c-3.037,1.185-10.225,2.018-18.608,2.018s-15.571-.833-18.608-2.018Z" transform="translate(6.874 52.582)"/></g></g></g></g></g></g></svg>