<svg xmlns="http://www.w3.org/2000/svg" xmlns:xlink="http://www.w3.org/1999/xlink" width="375" height="812" viewBox="0 0 375 812"><defs><style>.a{fill:url(#a);}.b,.k{fill:#fff;}.b,.v{stroke:#c5d8f1;}.b,.s,.v{stroke-miterlimit:10;}.c{clip-path:url(#e);}.d{clip-path:url(#g);}.e{opacity:0.5;fill:url(#h);}.f{fill:url(#i);}.g{opacity:0.236;fill:url(#j);}.h{fill:url(#k);}.i{clip-path:url(#m);}.j{fill:url(#o);}.l{fill:url(#p);}.m{fill:url(#r);}.n{fill:url(#s);}.o{clip-path:url(#v);}.p{fill:url(#w);}.q{fill:#f2a196;}.r{fill:#e88870;}.s,.v,.x{fill:none;}.s{stroke:#011223;stroke-width:0.3px;}.t{fill:#011223;}.u{fill:url(#y);}.v{stroke-width:4px;}.w{stroke:none;}</style><linearGradient id="a" x1="0.5" y1="0.197" x2="-0.338" y2="2.945" gradientUnits="objectBoundingBox"><stop offset="0" stop-color="#f7faff"/><stop offset="1" stop-color="#6b9ad9"/></linearGradient><clipPath id="e"><rect class="a" width="375" height="812" transform="translate(0.974 0)"/></clipPath><clipPath id="g"><rect class="a" width="375" height="812"/></clipPath><linearGradient id="h" x1="0.5" y1="0.197" x2="-0.338" y2="2.945" gradientUnits="objectBoundingBox"><stop offset="0" stop-color="#ecf2ff"/><stop offset="1" stop-color="#6b9ad9"/></linearGradient><linearGradient id="i" x1="0.5" y1="0.197" x2="-0.338" y2="2.945" gradientUnits="objectBoundingBox"><stop offset="0" stop-color="#e7efff"/><stop offset="1" stop-color="#6b9ad9"/></linearGradient><linearGradient id="j" x1="0.5" y1="0.197" x2="-0.338" y2="2.945" gradientUnits="objectBoundingBox"><stop offset="0" stop-color="#d9e6ff"/><stop offset="1" stop-color="#1c467e"/></linearGradient><linearGradient id="k" x1="0.794" y1="-0.518" x2="0.5" y2="1.89" xlink:href="#a"/><clipPath id="m"><path class="a" d="M0,0H68.883V80.756H0Z"/></clipPath><linearGradient id="o" x1="0.5" y1="-1.043" x2="0.5" y2="1" gradientUnits="objectBoundingBox"><stop offset="0" stop-color="#fff"/><stop offset="1" stop-color="#b3cdef"/></linearGradient><linearGradient id="p" x1="1.574" y1="-0.397" x2="1.188" y2="1.159" gradientUnits="objectBoundingBox"><stop offset="0" stop-color="#e5edff"/><stop offset="1" stop-color="#6b9ad9"/></linearGradient><linearGradient id="r" x1="0.5" x2="0.5" y2="1.89" gradientUnits="objectBoundingBox"><stop offset="0" stop-color="#f7faff"/><stop offset="1" stop-color="#fff"/></linearGradient><linearGradient id="s" x1="0.5" x2="0.5" y2="1" gradientUnits="objectBoundingBox"><stop offset="0" stop-color="#ebf2fb"/><stop offset="1" stop-color="#d2e1f5"/></linearGradient><clipPath id="v"><circle class="b" cx="100" cy="100" r="100"/></clipPath><linearGradient id="w" x1="0.5" y1="1.282" x2="0.149" y2="0.049" gradientUnits="objectBoundingBox"><stop offset="0" stop-color="#011223"/><stop offset="1" stop-color="#184068"/></linearGradient><linearGradient id="y" x1="0.5" y1="-0.106" x2="0.5" y2="1" gradientUnits="objectBoundingBox"><stop offset="0" stop-color="#9defff"/><stop offset="1" stop-color="#01c8ef"/></linearGradient></defs><g transform="translate(-0.974 0)"><rect class="a" width="375" height="812" transform="translate(0.974 0)"/><g class="c"><g transform="translate(0.974 -1)"><rect class="a" width="375" height="812"/><g class="d"><g transform="matrix(-0.966, 0.259, -0.259, -0.966, 569.314, 777.67)"><path class="e" d="M5.258,69.449s303.4,124.222,303.4,302.989S548.254,625.1,548.254,625.1V0H0Z" transform="translate(0)"/><path class="f" d="M0,51.2s239.176,121.95,239.176,300.717S437.579,625.1,437.579,625.1V0H0Z" transform="translate(110.675 0)"/><path class="g" d="M0,14.174s178.189,137.8,178.189,316.569S341.278,625.1,341.278,625.1V0H0Z" transform="translate(206.975 0)"/></g></g></g><g transform="translate(30.818 133.37)"><g transform="translate(0.182 4.61)"><path class="h" d="M0,0H82.293V92.207H0Z"/><g transform="translate(6.705 6.027)"><path class="a" d="M0,0H68.883V80.756H0Z"/><g class="i"><g transform="translate(-4.022 8.58)"><ellipse class="h" cx="6.285" cy="6.309" rx="6.285" ry="6.309" transform="translate(54.302 0)"/><path class="j" d="M10.559,0q5.279,0,10.559,43.063H0Q5.279,0,10.559,0Z" transform="translate(26.648 10.942)"/><path class="k" d="M4.647,12.985c-1.92.305-3.934-2.349-4.5-5.928S.682.329,2.6.024,6.536,2.373,7.1,5.952,6.567,12.68,4.647,12.985Z" transform="translate(38.107 20.751)"/><path class="l" d="M9.553,0V23.3Q0,30.127,0,23.3T9.553,0Z" transform="translate(25.642 28.769)"/><path class="l" d="M0,0Q9.553,7.138,9.553,10.095T0,10.095Z" transform="translate(44.749 43.911)"/><path class="m" d="M32.363,13.887a6.772,6.772,0,0,1-10.547.47,5.018,5.018,0,0,1-8.324.165A3.761,3.761,0,0,1,8,14.388a4.8,4.8,0,1,1,.969-5.832,3.762,3.762,0,0,1,4.317.452,5.018,5.018,0,0,1,7.234-1.5A6.781,6.781,0,0,1,29.8,3.678a4.772,4.772,0,0,1,8.974-.915,4.767,4.767,0,0,1,7.367,1.175A6.779,6.779,0,0,1,55.9,7.5a5.018,5.018,0,0,1,7.234,1.5,3.76,3.76,0,0,1,4.7-.208,4.793,4.793,0,1,1,.815,5.311,3.762,3.762,0,0,1-5.715.411,5.018,5.018,0,0,1-8.324-.165,6.771,6.771,0,0,1-10.177-.01,6.28,6.28,0,0,1-12.07-.46Z" transform="translate(0 57.539)"/></g></g></g></g><g transform="translate(257.156)"><path class="n" d="M0,32.071V0H27.743V32.071Z" transform="translate(0 36.306)"/><path class="a" d="M0,0H25.894V30.255H0Z" transform="translate(11.097)"/><path class="a" d="M0,0H24.044V25.414H3.546L0,22.249Z" transform="translate(33.909 47.198)"/></g></g><g transform="translate(89 231)"><g class="b"><circle class="w" cx="100" cy="100" r="100"/><circle class="x" cx="100" cy="100" r="99.5"/></g><g class="o"><g transform="translate(37.5 47.059)"><path class="p" d="M1.792,126.987a2.329,2.329,0,0,1-1.244-.36A2.46,2.46,0,0,1,0,124.647c0-8.524.386-17.184.759-25.559.527-11.818,1.071-24.037.535-36.029A72.529,72.529,0,0,1,6.228,33.17,57.971,57.971,0,0,1,20.844,11.662a42.646,42.646,0,0,1,5.6-4.3,45.538,45.538,0,0,1,12.132-5.5A47.508,47.508,0,0,1,51.749,0,46.065,46.065,0,0,1,64.419,1.757,42.711,42.711,0,0,1,76.129,7.1a37.46,37.46,0,0,1,10.013,9.659,46.045,46.045,0,0,1,6.02,12.1,70.535,70.535,0,0,1,2.98,13.514,120.5,120.5,0,0,1,.894,13.887c.1,7.739.021,15.568-.05,23.139-.138,14.7-.281,29.9.812,44.961-.077-1.075-17.494-3.665-19.386-3.749-.692-.03-1.421-.045-2.166-.045-3.479,0-7.074.328-10.552.646-2.057.188-4.184.382-6.235.5-3.575.225-7.3.317-10.9.406A151.664,151.664,0,0,0,26.607,123.6c-1.318.221-2.627.445-3.894.663a176,176,0,0,1-20.519,2.69A2.331,2.331,0,0,1,1.792,126.987ZM57.28,26.933a38.995,38.995,0,0,1-5.27,7.027,38.814,38.814,0,0,1-6.7,5.657A71.265,71.265,0,0,1,27.8,48.44l7.725,5.514,24.89-25.031Z" transform="translate(7.791 0.36)"/><path class="q" d="M124.167,52.472A100.717,100.717,0,0,1,0,51.921L26.678,39.342a26.091,26.091,0,0,0,2.385-1.29l.614-.386c.219-.138.433-.281.647-.43a25.616,25.616,0,0,0,8.043-9.083,28.859,28.859,0,0,0,2.95-13.45c0-2.575-.1-5.151-.17-7.721q0-.866-.033-1.737Q41.08,2.625,41.058,0H41.1l1.047.551,2.851,1.483L61.6,4.875,78.662,7.8l.389,13.235.11,3.794v.59l.258,8.752,6.288,2.575,4.934,2.007Z" transform="translate(0.51 76.224)"/><path class="r" d="M37.928,21.033A6.616,6.616,0,0,1,33.9,22.2C25.8,21.32,9.978,14.928.033,3.1q0-.866-.033-1.737V0L1.047.551,3.9,2.035,20.5,4.875,37.566,7.8Z" transform="translate(41.634 76.23)"/><ellipse class="q" cx="9.32" cy="9.375" rx="9.32" ry="9.375" transform="translate(18.542 49.186)"/><ellipse class="r" cx="9.32" cy="9.375" rx="9.32" ry="9.375" transform="translate(21.831 48.083)"/><path class="q" d="M63.688,32.661c6.436,22.434-7.237,49.561-15.647,49.561-11.513,0-39.474-9.254-45.9-31.687S4.281,5.909,21.276.979,57.252,10.222,63.688,32.661Z" transform="translate(27.518 11.705)"/><path class="s" d="M0,0A16.275,16.275,0,0,0,10.164,5.344" transform="translate(59.38 71.619)"/><path class="s" d="M2.511,0A57.5,57.5,0,0,1,6.519,9.7a32.165,32.165,0,0,1,.888,8.14H0" transform="translate(68.174 46.726)"/><path class="s" d="M0,1.874A17,17,0,0,1,12.527.682" transform="translate(77.489 40.16)"/><path class="s" d="M0,2.208a20.042,20.042,0,0,1,17.122-.551" transform="translate(45.06 42.02)"/><path class="t" d="M2.656,0C6,.028,6,5.173,2.656,5.195H2.508C-.836,5.195-.836.028,2.508,0Z" transform="translate(52.02 49.114)"/><path class="t" d="M2.468,0c3.1,0,3.1,4.8,0,4.82H2.331c-3.109,0-3.109-4.8,0-4.82Z" transform="translate(79.692 48.347)"/><path class="p" d="M50.718.987a63.158,63.158,0,0,1-1.245,7.721,44.827,44.827,0,0,1-4.934,12.783A38.855,38.855,0,0,1,32.566,34.175,71.279,71.279,0,0,1,15.055,43,110.738,110.738,0,0,1,0,46.985c.17-4.208,0-9.414.515-14.3a24.747,24.747,0,0,1,2.7-9.551A43.714,43.714,0,0,1,20.861,6.425l.066-.033C29.035,2.195,41.6-1.947,50.718.987Z" transform="translate(20.515 5.807)"/><path class="u" d="M124.167,32.305A100.717,100.717,0,0,1,0,31.754L26.678,19.175a25.637,25.637,0,0,0,3.646-2.107c.351-.243.7-.5,1.036-.761a25.523,25.523,0,0,0,7.007-8.322A24.748,24.748,0,0,0,40.91,0a15.741,15.741,0,0,0,1.217,1.07A52.081,52.081,0,0,0,52.993,7.285,54.065,54.065,0,0,0,58.728,9.32,50.987,50.987,0,0,0,76.82,11.244c.844-.066,1.694-.149,2.538-.21l.082,2.8v.182l6.634,2.713Z" transform="translate(0.51 96.392)"/></g></g><g class="v"><circle class="w" cx="100" cy="100" r="100"/><circle class="x" cx="100" cy="100" r="98"/></g></g></g></g></svg>